%TF.GenerationSoftware,KiCad,Pcbnew,10.0.6*%
%TF.CreationDate,2026-09-15T19:52:53+02:00*%
%TF.ProjectId,MildlyOverkill,4d696c64-6c79-44f7-9665-726b696c6c2e,rev?*%
%TF.SameCoordinates,Original*%
%TF.FileFunction,Component,L1,Top*%
%TF.FilePolarity,Positive*%
%FSLAX46Y46*%
G04 Gerber Fmt 4.6, Leading zero omitted, Abs format (unit mm)*
G04 Created by KiCad (PCBNEW 10.0.6) date 2026-09-15 19:52:53*
%MOMM*%
%LPD*%
G01*
G04 APERTURE LIST*
%TA.AperFunction,ComponentMain*%
%ADD10C,0.300000*%
%TD*%
%TA.AperFunction,ComponentOutline,Courtyard*%
%ADD11C,0.100000*%
%TD*%
%TA.AperFunction,ComponentPin*%
%ADD12P,0.360000X4X0.000000*%
%TD*%
%TA.AperFunction,ComponentPin*%
%ADD13C,0.100000*%
%TD*%
%TA.AperFunction,ComponentOutline,Footprint*%
%ADD14C,0.100000*%
%TD*%
G04 APERTURE END LIST*
D10*
%TO.C,D20*%
%TO.CFtp,D_SMA*%
%TO.CVal,SMAJ28A*%
%TO.CLbN,Diode_SMD*%
%TO.CMnt,SMD*%
%TO.CRot,180*%
X228325000Y-102900000D03*
D11*
X231820000Y-101155000D02*
X231820000Y-104645000D01*
X224830000Y-104645000D01*
X224830000Y-101155000D01*
X231820000Y-101155000D01*
D12*
%TO.P,D20,1,A1_1*%
X230325000Y-102900000D03*
D13*
%TO.P,D20,2,A2_2*%
X226325000Y-102900000D03*
%TD*%
D10*
%TO.C,R2*%
%TO.CFtp,R_0805_2012Metric*%
%TO.CVal,10k*%
%TO.CLbN,Resistor_SMD*%
%TO.CMnt,SMD*%
%TO.CRot,0*%
X81180000Y-107610000D03*
D11*
X82855000Y-106665000D02*
X82855000Y-108555000D01*
X79505000Y-108555000D01*
X79505000Y-106665000D01*
X82855000Y-106665000D01*
D12*
%TO.P,R2,1*%
X80267500Y-107610000D03*
D13*
%TO.P,R2,2*%
X82092500Y-107610000D03*
%TD*%
D10*
%TO.C,R11*%
%TO.CFtp,R_0805_2012Metric*%
%TO.CVal,500*%
%TO.CLbN,Resistor_SMD*%
%TO.CMnt,SMD*%
%TO.CRot,90*%
X178378563Y-118200000D03*
D11*
X179323563Y-116525000D02*
X179323563Y-119875000D01*
X177433563Y-119875000D01*
X177433563Y-116525000D01*
X179323563Y-116525000D01*
D12*
%TO.P,R11,1*%
X178378563Y-119112500D03*
D13*
%TO.P,R11,2*%
X178378563Y-117287500D03*
%TD*%
D10*
%TO.C,R51*%
%TO.CFtp,R_0805_2012Metric*%
%TO.CVal,1K*%
%TO.CLbN,Resistor_SMD*%
%TO.CMnt,SMD*%
%TO.CRot,0*%
X90000000Y-119410000D03*
D11*
X91675000Y-118465000D02*
X91675000Y-120355000D01*
X88325000Y-120355000D01*
X88325000Y-118465000D01*
X91675000Y-118465000D01*
D12*
%TO.P,R51,1*%
X89087500Y-119410000D03*
D13*
%TO.P,R51,2*%
X90912500Y-119410000D03*
%TD*%
D10*
%TO.C,R37*%
%TO.CFtp,R_0805_2012Metric*%
%TO.CVal,6k*%
%TO.CLbN,Resistor_SMD*%
%TO.CMnt,SMD*%
%TO.CRot,0*%
X85590000Y-110560000D03*
D11*
X87265000Y-109615000D02*
X87265000Y-111505000D01*
X83915000Y-111505000D01*
X83915000Y-109615000D01*
X87265000Y-109615000D01*
D12*
%TO.P,R37,1*%
X84677500Y-110560000D03*
D13*
%TO.P,R37,2*%
X86502500Y-110560000D03*
%TD*%
D10*
%TO.C,D6*%
%TO.CFtp,D_SOD-123*%
%TO.CVal,3v*%
%TO.CLbN,Diode_SMD*%
%TO.CMnt,SMD*%
%TO.CRot,0*%
X95125000Y-107810000D03*
D11*
X97470000Y-106665000D02*
X97470000Y-108955000D01*
X92780000Y-108955000D01*
X92780000Y-106665000D01*
X97470000Y-106665000D01*
D12*
%TO.P,D6,1,K_1*%
X93475000Y-107810000D03*
D13*
%TO.P,D6,2,A_2*%
X96775000Y-107810000D03*
%TD*%
D10*
%TO.C,TP1*%
%TO.CFtp,TestPoint_Loop_D2.50mm_Drill1.85mm*%
%TO.CVal,GND*%
%TO.CLbN,TestPoint*%
%TO.CMnt,TH*%
%TO.CRot,0*%
X135520000Y-119120000D03*
D11*
X135885499Y-116953159D02*
X136171051Y-117021209D01*
X136444982Y-117126712D01*
X136702412Y-117267787D01*
X136938734Y-117441910D01*
X137149743Y-117645982D01*
X137331670Y-117876360D01*
X137481267Y-118128928D01*
X137595864Y-118399182D01*
X137673417Y-118682298D01*
X137712549Y-118973267D01*
X137714999Y-119120000D01*
X137712549Y-119266732D01*
X137673417Y-119557701D01*
X137595864Y-119840817D01*
X137481267Y-120111071D01*
X137331670Y-120363639D01*
X137149743Y-120594017D01*
X136938734Y-120798089D01*
X136702412Y-120972212D01*
X136444982Y-121113287D01*
X136171051Y-121218790D01*
X135885499Y-121286840D01*
X135593425Y-121316223D01*
X135300043Y-121306415D01*
X135010591Y-121257590D01*
X134730214Y-121170616D01*
X134463942Y-121047053D01*
X134216518Y-120889103D01*
X133992349Y-120699580D01*
X133795442Y-120481871D01*
X133629311Y-120239859D01*
X133496915Y-119977856D01*
X133400627Y-119700560D01*
X133342155Y-119412890D01*
X133322549Y-119120000D01*
X133342155Y-118827109D01*
X133400627Y-118539439D01*
X133496915Y-118262143D01*
X133629311Y-118000140D01*
X133795442Y-117758128D01*
X133992349Y-117540419D01*
X134216518Y-117350896D01*
X134463942Y-117192946D01*
X134730214Y-117069383D01*
X135010591Y-116982409D01*
X135300043Y-116933584D01*
X135593425Y-116923776D01*
X135885499Y-116953159D01*
D12*
%TO.P,TP1,1,1_1*%
X135520000Y-119120000D03*
%TD*%
D10*
%TO.C,C17*%
%TO.CFtp,C_0603_1608Metric*%
%TO.CVal,100nF*%
%TO.CLbN,Capacitor_SMD*%
%TO.CMnt,SMD*%
%TO.CRot,0*%
X128950000Y-97960000D03*
D11*
X130425000Y-97235000D02*
X130425000Y-98685000D01*
X127475000Y-98685000D01*
X127475000Y-97235000D01*
X130425000Y-97235000D01*
D12*
%TO.P,C17,1*%
X128175000Y-97960000D03*
D13*
%TO.P,C17,2*%
X129725000Y-97960000D03*
%TD*%
D10*
%TO.C,C16*%
%TO.CFtp,CP_Radial_D16.0mm_P7.50mm*%
%TO.CVal,1000uF*%
%TO.CLbN,Capacitor_THT*%
%TO.CMnt,TH*%
%TO.CRot,0*%
X99844491Y-85400000D03*
D11*
X104169802Y-77172578D02*
X104742329Y-77232753D01*
X105309248Y-77332717D01*
X105867812Y-77471982D01*
X106415301Y-77649872D01*
X106949055Y-77865523D01*
X107466465Y-78117880D01*
X107965006Y-78405713D01*
X108442257Y-78727624D01*
X108895881Y-79082033D01*
X109323697Y-79467241D01*
X109723587Y-79881339D01*
X110093617Y-80322323D01*
X110431988Y-80788049D01*
X110737044Y-81276243D01*
X111007303Y-81784525D01*
X111241454Y-82310439D01*
X111438340Y-82851377D01*
X111597014Y-83404736D01*
X111716705Y-83967844D01*
X111796820Y-84537892D01*
X111836979Y-85112187D01*
X111839490Y-85400000D01*
X111836979Y-85687812D01*
X111796820Y-86262107D01*
X111716705Y-86832155D01*
X111597014Y-87395263D01*
X111438340Y-87948622D01*
X111241454Y-88489560D01*
X111007303Y-89015474D01*
X110737044Y-89523756D01*
X110431988Y-90011950D01*
X110093617Y-90477676D01*
X109723587Y-90918660D01*
X109323697Y-91332758D01*
X108895881Y-91717966D01*
X108442257Y-92072375D01*
X107965006Y-92394286D01*
X107466465Y-92682119D01*
X106949055Y-92934476D01*
X106415301Y-93150127D01*
X105867812Y-93328017D01*
X105309248Y-93467282D01*
X104742329Y-93567246D01*
X104169802Y-93627421D01*
X103594491Y-93647511D01*
X103019179Y-93627421D01*
X102446652Y-93567246D01*
X101879733Y-93467282D01*
X101321169Y-93328017D01*
X100773680Y-93150127D01*
X100239926Y-92934476D01*
X99722516Y-92682119D01*
X99223975Y-92394286D01*
X98746724Y-92072375D01*
X98293100Y-91717966D01*
X97865284Y-91332758D01*
X97465394Y-90918660D01*
X97095364Y-90477676D01*
X96756993Y-90011950D01*
X96451937Y-89523756D01*
X96181678Y-89015474D01*
X95947527Y-88489560D01*
X95750641Y-87948622D01*
X95591967Y-87395263D01*
X95472276Y-86832155D01*
X95392161Y-86262107D01*
X95352004Y-85687831D01*
X95352004Y-85112168D01*
X95392161Y-84537892D01*
X95472276Y-83967844D01*
X95591967Y-83404736D01*
X95750641Y-82851377D01*
X95947527Y-82310439D01*
X96181678Y-81784525D01*
X96451937Y-81276243D01*
X96756993Y-80788049D01*
X97095364Y-80322323D01*
X97465394Y-79881339D01*
X97865284Y-79467241D01*
X98293100Y-79082033D01*
X98746724Y-78727624D01*
X99223975Y-78405713D01*
X99722516Y-78117880D01*
X100239926Y-77865523D01*
X100773680Y-77649872D01*
X101321169Y-77471982D01*
X101879733Y-77332717D01*
X102446652Y-77232753D01*
X103019179Y-77172578D01*
X103594491Y-77152489D01*
X104169802Y-77172578D01*
D12*
%TO.P,C16,1*%
X99844491Y-85400000D03*
D13*
%TO.P,C16,2*%
X107344491Y-85400000D03*
%TD*%
D10*
%TO.C,R22*%
%TO.CFtp,R_0805_2012Metric*%
%TO.CVal,10k*%
%TO.CLbN,Resistor_SMD*%
%TO.CMnt,SMD*%
%TO.CRot,0*%
X168412500Y-126700000D03*
D11*
X170087500Y-125755000D02*
X170087500Y-127645000D01*
X166737500Y-127645000D01*
X166737500Y-125755000D01*
X170087500Y-125755000D01*
D12*
%TO.P,R22,1*%
X167500000Y-126700000D03*
D13*
%TO.P,R22,2*%
X169325000Y-126700000D03*
%TD*%
D10*
%TO.C,R5*%
%TO.CFtp,R_0805_2012Metric*%
%TO.CVal,5\u002C1K*%
%TO.CLbN,Resistor_SMD*%
%TO.CMnt,SMD*%
%TO.CRot,0*%
X137570000Y-88570000D03*
D11*
X139245000Y-87625000D02*
X139245000Y-89515000D01*
X135895000Y-89515000D01*
X135895000Y-87625000D01*
X139245000Y-87625000D01*
D12*
%TO.P,R5,1*%
X136657500Y-88570000D03*
D13*
%TO.P,R5,2*%
X138482500Y-88570000D03*
%TD*%
D10*
%TO.C,J1*%
%TO.CFtp,USB_C_Receptacle_HRO_TYPE-C-31-M-12*%
%TO.CVal,USB_C_Receptacle_USB2.0_16P*%
%TO.CLbN,Connector_USB*%
%TO.CMnt,SMD*%
%TO.CRot,0*%
X136800000Y-82420000D03*
D11*
X142115000Y-77155000D02*
X142115000Y-86565000D01*
X131485000Y-86565000D01*
X131485000Y-77155000D01*
X142115000Y-77155000D01*
D12*
%TO.P,J1,A1,GND_A1*%
X133550000Y-78375000D03*
D13*
%TO.P,J1,*%
X133910000Y-79820000D03*
X139690000Y-79820000D03*
%TO.P,J1,A4,VBUS_A4*%
X134350000Y-78375000D03*
%TO.P,J1,A5,CC1_A5*%
X135550000Y-78375000D03*
%TO.P,J1,A6,D+_A6*%
X136550000Y-78375000D03*
%TO.P,J1,A7,D-_A7*%
X137050000Y-78375000D03*
%TO.P,J1,A8,SBU1_A8*%
X138050000Y-78375000D03*
%TO.P,J1,A9,VBUS_A9*%
X139250000Y-78375000D03*
%TO.P,J1,A12,GND_A12*%
X140050000Y-78375000D03*
%TO.P,J1,B1,GND_B1*%
X140050000Y-78375000D03*
%TO.P,J1,B4,VBUS_B4*%
X139250000Y-78375000D03*
%TO.P,J1,B5,CC2_B5*%
X138550000Y-78375000D03*
%TO.P,J1,B6,D+_B6*%
X137550000Y-78375000D03*
%TO.P,J1,B7,D-_B7*%
X136050000Y-78375000D03*
%TO.P,J1,B8,SBU2_B8*%
X135050000Y-78375000D03*
%TO.P,J1,B9,VBUS_B9*%
X134350000Y-78375000D03*
%TO.P,J1,B12,GND_B12*%
X133550000Y-78375000D03*
%TO.P,J1,SH,SHIELD_SH*%
X132480000Y-79290000D03*
X132480000Y-83470000D03*
X141120000Y-79290000D03*
X141120000Y-83470000D03*
%TD*%
D10*
%TO.C,R44*%
%TO.CFtp,R_0805_2012Metric*%
%TO.CVal,1k*%
%TO.CLbN,Resistor_SMD*%
%TO.CMnt,SMD*%
%TO.CRot,90*%
X251912500Y-108900000D03*
D11*
X252857500Y-107225000D02*
X252857500Y-110575000D01*
X250967500Y-110575000D01*
X250967500Y-107225000D01*
X252857500Y-107225000D01*
D12*
%TO.P,R44,1*%
X251912500Y-109812500D03*
D13*
%TO.P,R44,2*%
X251912500Y-107987500D03*
%TD*%
D10*
%TO.C,R42*%
%TO.CFtp,R_0805_2012Metric*%
%TO.CVal,1k*%
%TO.CLbN,Resistor_SMD*%
%TO.CMnt,SMD*%
%TO.CRot,90*%
X262912500Y-131452052D03*
D11*
X263857500Y-129777052D02*
X263857500Y-133127052D01*
X261967500Y-133127052D01*
X261967500Y-129777052D01*
X263857500Y-129777052D01*
D12*
%TO.P,R42,1*%
X262912500Y-132364552D03*
D13*
%TO.P,R42,2*%
X262912500Y-130539552D03*
%TD*%
D10*
%TO.C,R19*%
%TO.CFtp,R_0805_2012Metric*%
%TO.CVal,10k*%
%TO.CLbN,Resistor_SMD*%
%TO.CMnt,SMD*%
%TO.CRot,180*%
X168412500Y-124700000D03*
D11*
X170087500Y-123755000D02*
X170087500Y-125645000D01*
X166737500Y-125645000D01*
X166737500Y-123755000D01*
X170087500Y-123755000D01*
D12*
%TO.P,R19,1*%
X169325000Y-124700000D03*
D13*
%TO.P,R19,2*%
X167500000Y-124700000D03*
%TD*%
D10*
%TO.C,R36*%
%TO.CFtp,R_0805_2012Metric*%
%TO.CVal,3k*%
%TO.CLbN,Resistor_SMD*%
%TO.CMnt,SMD*%
%TO.CRot,0*%
X85590000Y-107610000D03*
D11*
X87265000Y-106665000D02*
X87265000Y-108555000D01*
X83915000Y-108555000D01*
X83915000Y-106665000D01*
X87265000Y-106665000D01*
D12*
%TO.P,R36,1*%
X84677500Y-107610000D03*
D13*
%TO.P,R36,2*%
X86502500Y-107610000D03*
%TD*%
D10*
%TO.C,R21*%
%TO.CFtp,R_0805_2012Metric*%
%TO.CVal,500*%
%TO.CLbN,Resistor_SMD*%
%TO.CMnt,SMD*%
%TO.CRot,90*%
X167000000Y-140200000D03*
D11*
X167945000Y-138525000D02*
X167945000Y-141875000D01*
X166055000Y-141875000D01*
X166055000Y-138525000D01*
X167945000Y-138525000D01*
D12*
%TO.P,R21,1*%
X167000000Y-141112500D03*
D13*
%TO.P,R21,2*%
X167000000Y-139287500D03*
%TD*%
D10*
%TO.C,R34*%
%TO.CFtp,R_0805_2012Metric*%
%TO.CVal,3k*%
%TO.CLbN,Resistor_SMD*%
%TO.CMnt,SMD*%
%TO.CRot,0*%
X81180000Y-122360000D03*
D11*
X82855000Y-121415000D02*
X82855000Y-123305000D01*
X79505000Y-123305000D01*
X79505000Y-121415000D01*
X82855000Y-121415000D01*
D12*
%TO.P,R34,1*%
X80267500Y-122360000D03*
D13*
%TO.P,R34,2*%
X82092500Y-122360000D03*
%TD*%
D10*
%TO.C,J5*%
%TO.CFtp,PinHeader_1x04_P2.54mm_Vertical*%
%TO.CVal,Conn_01x04_Pin*%
%TO.CLbN,Connector_PinHeader_2.54mm*%
%TO.CMnt,TH*%
%TO.CRot,0*%
X125910000Y-118690000D03*
D11*
X127675000Y-116925000D02*
X127675000Y-128075000D01*
X124145000Y-128075000D01*
X124145000Y-116925000D01*
X127675000Y-116925000D01*
D12*
%TO.P,J5,1,Pin_1_1*%
X125910000Y-118690000D03*
D13*
%TO.P,J5,2,Pin_2_2*%
X125910000Y-121230000D03*
%TO.P,J5,3,Pin_3_3*%
X125910000Y-123770000D03*
%TO.P,J5,4,Pin_4_4*%
X125910000Y-126310000D03*
%TD*%
D10*
%TO.C,J4*%
%TO.CFtp,CONN4_2604-1104_WAG*%
%TO.CVal,2604-1104*%
%TO.CLbN,wago1104*%
%TO.CMnt,TH*%
%TO.CRot,0*%
X145499999Y-147800001D03*
D14*
X144499999Y-146800001D02*
X144499999Y-157000000D01*
X161500000Y-157000000D01*
X161500000Y-146800001D01*
X144499999Y-146800001D01*
D12*
%TO.P,J4,1,1_1_1*%
X145499999Y-147800001D03*
D13*
%TO.P,J4,2,1_2_2*%
X145499999Y-156000000D03*
%TO.P,J4,3,2_1_3*%
X150499999Y-147800001D03*
%TO.P,J4,4,2_2_4*%
X150499999Y-156000000D03*
%TO.P,J4,5,3_1_5*%
X155500000Y-147800001D03*
%TO.P,J4,6,3_2_6*%
X155500000Y-156000000D03*
%TO.P,J4,7,4_1_7*%
X160500000Y-147800001D03*
%TO.P,J4,8,4_2_8*%
X160500000Y-156000000D03*
%TD*%
D10*
%TO.C,R33*%
%TO.CFtp,R_0805_2012Metric*%
%TO.CVal,6k*%
%TO.CLbN,Resistor_SMD*%
%TO.CMnt,SMD*%
%TO.CRot,0*%
X81180000Y-119410000D03*
D11*
X82855000Y-118465000D02*
X82855000Y-120355000D01*
X79505000Y-120355000D01*
X79505000Y-118465000D01*
X82855000Y-118465000D01*
D12*
%TO.P,R33,1*%
X80267500Y-119410000D03*
D13*
%TO.P,R33,2*%
X82092500Y-119410000D03*
%TD*%
D10*
%TO.C,R50*%
%TO.CFtp,R_0805_2012Metric*%
%TO.CVal,10K*%
%TO.CLbN,Resistor_SMD*%
%TO.CMnt,SMD*%
%TO.CRot,0*%
X90000000Y-116460000D03*
D11*
X91675000Y-115515000D02*
X91675000Y-117405000D01*
X88325000Y-117405000D01*
X88325000Y-115515000D01*
X91675000Y-115515000D01*
D12*
%TO.P,R50,1*%
X89087500Y-116460000D03*
D13*
%TO.P,R50,2*%
X90912500Y-116460000D03*
%TD*%
D10*
%TO.C,R49*%
%TO.CFtp,R_0805_2012Metric*%
%TO.CVal,10K*%
%TO.CLbN,Resistor_SMD*%
%TO.CMnt,SMD*%
%TO.CRot,0*%
X90000000Y-113510000D03*
D11*
X91675000Y-112565000D02*
X91675000Y-114455000D01*
X88325000Y-114455000D01*
X88325000Y-112565000D01*
X91675000Y-112565000D01*
D12*
%TO.P,R49,1*%
X89087500Y-113510000D03*
D13*
%TO.P,R49,2*%
X90912500Y-113510000D03*
%TD*%
D10*
%TO.C,R55*%
%TO.CFtp,R_0805_2012Metric*%
%TO.CVal,52.3K*%
%TO.CLbN,Resistor_SMD*%
%TO.CMnt,SMD*%
%TO.CRot,-90*%
X185500000Y-49087500D03*
D11*
X186445000Y-47412500D02*
X186445000Y-50762500D01*
X184555000Y-50762500D01*
X184555000Y-47412500D01*
X186445000Y-47412500D01*
D12*
%TO.P,R55,1*%
X185500000Y-48175000D03*
D13*
%TO.P,R55,2*%
X185500000Y-50000000D03*
%TD*%
D10*
%TO.C,C10*%
%TO.CFtp,C_0603_1608Metric*%
%TO.CVal,24pF*%
%TO.CLbN,Capacitor_SMD*%
%TO.CMnt,SMD*%
%TO.CRot,90*%
X187500000Y-49225000D03*
D11*
X188225000Y-47750000D02*
X188225000Y-50700000D01*
X186775000Y-50700000D01*
X186775000Y-47750000D01*
X188225000Y-47750000D01*
D12*
%TO.P,C10,1*%
X187500000Y-50000000D03*
D13*
%TO.P,C10,2*%
X187500000Y-48450000D03*
%TD*%
D10*
%TO.C,U1*%
%TO.CFtp,ESP32-S3-WROOM-1*%
%TO.CVal,ESP32-S3-WROOM-1*%
%TO.CLbN,RF_Module*%
%TO.CMnt,SMD*%
%TO.CRot,0*%
X103500000Y-62650000D03*
D11*
X127495000Y-34905000D02*
X127495000Y-55895000D01*
X113245000Y-55895000D01*
X113245000Y-76095000D01*
X93755000Y-76095000D01*
X93755000Y-55895000D01*
X79505000Y-55895000D01*
X79505000Y-34905000D01*
X127495000Y-34905000D01*
D12*
%TO.P,U1,1,GND_1*%
X94750000Y-57390000D03*
D13*
%TO.P,U1,2,3V3_2*%
X94750000Y-58660000D03*
%TO.P,U1,3,EN_3*%
X94750000Y-59930000D03*
%TO.P,U1,4,IO4_4*%
X94750000Y-61200000D03*
%TO.P,U1,5,IO5_5*%
X94750000Y-62470000D03*
%TO.P,U1,6,IO6_6*%
X94750000Y-63740000D03*
%TO.P,U1,7,IO7_7*%
X94750000Y-65010000D03*
%TO.P,U1,8,IO15_8*%
X94750000Y-66280000D03*
%TO.P,U1,9,IO16_9*%
X94750000Y-67550000D03*
%TO.P,U1,10,IO17_10*%
X94750000Y-68820000D03*
%TO.P,U1,11,IO18_11*%
X94750000Y-70090000D03*
%TO.P,U1,12,IO8_12*%
X94750000Y-71360000D03*
%TO.P,U1,13,USB_D-_13*%
X94750000Y-72630000D03*
%TO.P,U1,14,USB_D+_14*%
X94750000Y-73900000D03*
%TO.P,U1,15,IO3_15*%
X96515000Y-75150000D03*
%TO.P,U1,16,IO46_16*%
X97785000Y-75150000D03*
%TO.P,U1,17,IO9_17*%
X99055000Y-75150000D03*
%TO.P,U1,18,IO10_18*%
X100325000Y-75150000D03*
%TO.P,U1,19,IO11_19*%
X101595000Y-75150000D03*
%TO.P,U1,20,IO12_20*%
X102865000Y-75150000D03*
%TO.P,U1,21,IO13_21*%
X104135000Y-75150000D03*
%TO.P,U1,22,IO14_22*%
X105405000Y-75150000D03*
%TO.P,U1,23,IO21_23*%
X106675000Y-75150000D03*
%TO.P,U1,24,IO47_24*%
X107945000Y-75150000D03*
%TO.P,U1,25,IO48_25*%
X109215000Y-75150000D03*
%TO.P,U1,26,IO45_26*%
X110485000Y-75150000D03*
%TO.P,U1,27,IO0_27*%
X112250000Y-73900000D03*
%TO.P,U1,28,IO35_28*%
X112250000Y-72630000D03*
%TO.P,U1,29,IO36_29*%
X112250000Y-71360000D03*
%TO.P,U1,30,IO37_30*%
X112250000Y-70090000D03*
%TO.P,U1,31,IO38_31*%
X112250000Y-68820000D03*
%TO.P,U1,32,IO39_32*%
X112250000Y-67550000D03*
%TO.P,U1,33,IO40_33*%
X112250000Y-66280000D03*
%TO.P,U1,34,IO41_34*%
X112250000Y-65010000D03*
%TO.P,U1,35,IO42_35*%
X112250000Y-63740000D03*
%TO.P,U1,36,RXD0_36*%
X112250000Y-62470000D03*
%TO.P,U1,37,TXD0_37*%
X112250000Y-61200000D03*
%TO.P,U1,38,IO2_38*%
X112250000Y-59930000D03*
%TO.P,U1,39,IO1_39*%
X112250000Y-58660000D03*
%TO.P,U1,40,GND_40*%
X112250000Y-57390000D03*
%TO.P,U1,41,GND_41*%
X100600000Y-64410000D03*
X100600000Y-65810000D03*
X101300000Y-63710000D03*
X101300000Y-65110000D03*
X101300000Y-66510000D03*
X102000000Y-64410000D03*
X102000000Y-65110000D03*
X102000000Y-65810000D03*
X102700000Y-63710000D03*
X102700000Y-65110000D03*
X102700000Y-66510000D03*
X103400000Y-64410000D03*
X103400000Y-65810000D03*
%TD*%
D10*
%TO.C,C8*%
%TO.CFtp,C_0603_1608Metric*%
%TO.CVal,1nF*%
%TO.CLbN,Capacitor_SMD*%
%TO.CMnt,SMD*%
%TO.CRot,90*%
X168912500Y-140200000D03*
D11*
X169637500Y-138725000D02*
X169637500Y-141675000D01*
X168187500Y-141675000D01*
X168187500Y-138725000D01*
X169637500Y-138725000D01*
D12*
%TO.P,C8,1*%
X168912500Y-140975000D03*
D13*
%TO.P,C8,2*%
X168912500Y-139425000D03*
%TD*%
D10*
%TO.C,U6*%
%TO.CFtp,SOT-583-8*%
%TO.CVal,TPS62932*%
%TO.CLbN,Package_TO_SOT_SMD*%
%TO.CMnt,SMD*%
%TO.CRot,0*%
X180500000Y-54500000D03*
D11*
X181815000Y-53205000D02*
X181815000Y-55795000D01*
X179185000Y-55795000D01*
X179185000Y-53205000D01*
X181815000Y-53205000D01*
D12*
%TO.P,U6,1,RT_1*%
X179760000Y-53750000D03*
D13*
%TO.P,U6,2,EN_2*%
X179760000Y-54250000D03*
%TO.P,U6,3,VIN_3*%
X179760000Y-54750000D03*
%TO.P,U6,4,GND_4*%
X179760000Y-55250000D03*
%TO.P,U6,5,SW_5*%
X181240000Y-55250000D03*
%TO.P,U6,6,BST_6*%
X181240000Y-54750000D03*
%TO.P,U6,7,SS_7*%
X181240000Y-54250000D03*
%TO.P,U6,8,FB_8*%
X181240000Y-53750000D03*
%TD*%
D10*
%TO.C,R35*%
%TO.CFtp,R_0805_2012Metric*%
%TO.CVal,6k*%
%TO.CLbN,Resistor_SMD*%
%TO.CMnt,SMD*%
%TO.CRot,0*%
X81180000Y-125310000D03*
D11*
X82855000Y-124365000D02*
X82855000Y-126255000D01*
X79505000Y-126255000D01*
X79505000Y-124365000D01*
X82855000Y-124365000D01*
D12*
%TO.P,R35,1*%
X80267500Y-125310000D03*
D13*
%TO.P,R35,2*%
X82092500Y-125310000D03*
%TD*%
D10*
%TO.C,R15*%
%TO.CFtp,R_0805_2012Metric*%
%TO.CVal,10k*%
%TO.CLbN,Resistor_SMD*%
%TO.CMnt,SMD*%
%TO.CRot,0*%
X179791063Y-104700000D03*
D11*
X181466063Y-103755000D02*
X181466063Y-105645000D01*
X178116063Y-105645000D01*
X178116063Y-103755000D01*
X181466063Y-103755000D01*
D12*
%TO.P,R15,1*%
X178878563Y-104700000D03*
D13*
%TO.P,R15,2*%
X180703563Y-104700000D03*
%TD*%
D10*
%TO.C,R28*%
%TO.CFtp,R_0805_2012Metric*%
%TO.CVal,3k*%
%TO.CLbN,Resistor_SMD*%
%TO.CMnt,SMD*%
%TO.CRot,0*%
X254912500Y-109900000D03*
D11*
X256587500Y-108955000D02*
X256587500Y-110845000D01*
X253237500Y-110845000D01*
X253237500Y-108955000D01*
X256587500Y-108955000D01*
D12*
%TO.P,R28,1*%
X254000000Y-109900000D03*
D13*
%TO.P,R28,2*%
X255825000Y-109900000D03*
%TD*%
D10*
%TO.C,C6*%
%TO.CFtp,C_0603_1608Metric*%
%TO.CVal,1nF*%
%TO.CLbN,Capacitor_SMD*%
%TO.CMnt,SMD*%
%TO.CRot,90*%
X180291063Y-118200000D03*
D11*
X181016063Y-116725000D02*
X181016063Y-119675000D01*
X179566063Y-119675000D01*
X179566063Y-116725000D01*
X181016063Y-116725000D01*
D12*
%TO.P,C6,1*%
X180291063Y-118975000D03*
D13*
%TO.P,C6,2*%
X180291063Y-117425000D03*
%TD*%
D10*
%TO.C,R31*%
%TO.CFtp,R_0805_2012Metric*%
%TO.CVal,10k*%
%TO.CLbN,Resistor_SMD*%
%TO.CMnt,SMD*%
%TO.CRot,180*%
X252412500Y-116400000D03*
D11*
X254087500Y-115455000D02*
X254087500Y-117345000D01*
X250737500Y-117345000D01*
X250737500Y-115455000D01*
X254087500Y-115455000D01*
D12*
%TO.P,R31,1*%
X253325000Y-116400000D03*
D13*
%TO.P,R31,2*%
X251500000Y-116400000D03*
%TD*%
D10*
%TO.C,R58*%
%TO.CFtp,R_0805_2012Metric*%
%TO.CVal,5.1k*%
%TO.CLbN,Resistor_SMD*%
%TO.CMnt,SMD*%
%TO.CRot,0*%
X263912500Y-128452052D03*
D11*
X265587500Y-127507052D02*
X265587500Y-129397052D01*
X262237500Y-129397052D01*
X262237500Y-127507052D01*
X265587500Y-127507052D01*
D12*
%TO.P,R58,1*%
X263000000Y-128452052D03*
D13*
%TO.P,R58,2*%
X264825000Y-128452052D03*
%TD*%
D10*
%TO.C,C25*%
%TO.CFtp,C_0603_1608Metric*%
%TO.CVal,100nF*%
%TO.CLbN,Capacitor_SMD*%
%TO.CMnt,SMD*%
%TO.CRot,-90*%
X236825000Y-110900000D03*
D11*
X237550000Y-109425000D02*
X237550000Y-112375000D01*
X236100000Y-112375000D01*
X236100000Y-109425000D01*
X237550000Y-109425000D01*
D12*
%TO.P,C25,1*%
X236825000Y-110125000D03*
D13*
%TO.P,C25,2*%
X236825000Y-111675000D03*
%TD*%
D10*
%TO.C,C23*%
%TO.CFtp,C_0603_1608Metric*%
%TO.CVal,100nF*%
%TO.CLbN,Capacitor_SMD*%
%TO.CMnt,SMD*%
%TO.CRot,-90*%
X247825000Y-133452052D03*
D11*
X248550000Y-131977052D02*
X248550000Y-134927052D01*
X247100000Y-134927052D01*
X247100000Y-131977052D01*
X248550000Y-131977052D01*
D12*
%TO.P,C23,1*%
X247825000Y-132677052D03*
D13*
%TO.P,C23,2*%
X247825000Y-134227052D03*
%TD*%
D10*
%TO.C,R7*%
%TO.CFtp,R_0805_2012Metric*%
%TO.CVal,10K*%
%TO.CLbN,Resistor_SMD*%
%TO.CMnt,SMD*%
%TO.CRot,0*%
X81180000Y-113510000D03*
D11*
X82855000Y-112565000D02*
X82855000Y-114455000D01*
X79505000Y-114455000D01*
X79505000Y-112565000D01*
X82855000Y-112565000D01*
D12*
%TO.P,R7,1*%
X80267500Y-113510000D03*
D13*
%TO.P,R7,2*%
X82092500Y-113510000D03*
%TD*%
D10*
%TO.C,U2*%
%TO.CFtp,SOIC-16_3.9x9.9mm_P1.27mm*%
%TO.CVal,MCP3208*%
%TO.CLbN,Package_SO*%
%TO.CMnt,SMD*%
%TO.CRot,0*%
X116590000Y-94575000D03*
D11*
X118785000Y-89380000D02*
X118785000Y-89580000D01*
X120285000Y-89580000D01*
X120285000Y-99570000D01*
X118785000Y-99570000D01*
X118785000Y-99770000D01*
X114395000Y-99770000D01*
X114395000Y-99570000D01*
X112895000Y-99570000D01*
X112895000Y-89580000D01*
X114395000Y-89580000D01*
X114395000Y-89380000D01*
X118785000Y-89380000D01*
D12*
%TO.P,U2,1,CH0_1*%
X114115000Y-90130000D03*
D13*
%TO.P,U2,2,CH1_2*%
X114115000Y-91400000D03*
%TO.P,U2,3,CH2_3*%
X114115000Y-92670000D03*
%TO.P,U2,4,CH3_4*%
X114115000Y-93940000D03*
%TO.P,U2,5,CH4_5*%
X114115000Y-95210000D03*
%TO.P,U2,6,CH5_6*%
X114115000Y-96480000D03*
%TO.P,U2,7,CH6_7*%
X114115000Y-97750000D03*
%TO.P,U2,8,CH7_8*%
X114115000Y-99020000D03*
%TO.P,U2,9,DGND_9*%
X119065000Y-99020000D03*
%TO.P,U2,10,~{CS}/SHDN_10*%
X119065000Y-97750000D03*
%TO.P,U2,11,Din_11*%
X119065000Y-96480000D03*
%TO.P,U2,12,Dout_12*%
X119065000Y-95210000D03*
%TO.P,U2,13,CLK_13*%
X119065000Y-93940000D03*
%TO.P,U2,14,AGND_14*%
X119065000Y-92670000D03*
%TO.P,U2,15,Vref_15*%
X119065000Y-91400000D03*
%TO.P,U2,16,Vdd_16*%
X119065000Y-90130000D03*
%TD*%
D10*
%TO.C,C13*%
%TO.CFtp,C_0603_1608Metric*%
%TO.CVal,100nF*%
%TO.CLbN,Capacitor_SMD*%
%TO.CMnt,SMD*%
%TO.CRot,90*%
X177500000Y-56000000D03*
D11*
X178225000Y-54525000D02*
X178225000Y-57475000D01*
X176775000Y-57475000D01*
X176775000Y-54525000D01*
X178225000Y-54525000D01*
D12*
%TO.P,C13,1*%
X177500000Y-56775000D03*
D13*
%TO.P,C13,2*%
X177500000Y-55225000D03*
%TD*%
D10*
%TO.C,R43*%
%TO.CFtp,R_0805_2012Metric*%
%TO.CVal,1k*%
%TO.CLbN,Resistor_SMD*%
%TO.CMnt,SMD*%
%TO.CRot,-90*%
X168912500Y-134200000D03*
D11*
X169857500Y-132525000D02*
X169857500Y-135875000D01*
X167967500Y-135875000D01*
X167967500Y-132525000D01*
X169857500Y-132525000D01*
D12*
%TO.P,R43,1*%
X168912500Y-133287500D03*
D13*
%TO.P,R43,2*%
X168912500Y-135112500D03*
%TD*%
D10*
%TO.C,D8*%
%TO.CFtp,D_SOD-123*%
%TO.CVal,3v*%
%TO.CLbN,Diode_SMD*%
%TO.CMnt,SMD*%
%TO.CRot,0*%
X95125000Y-114510000D03*
D11*
X97470000Y-113365000D02*
X97470000Y-115655000D01*
X92780000Y-115655000D01*
X92780000Y-113365000D01*
X97470000Y-113365000D01*
D12*
%TO.P,D8,1,K_1*%
X93475000Y-114510000D03*
D13*
%TO.P,D8,2,A_2*%
X96775000Y-114510000D03*
%TD*%
D10*
%TO.C,C9*%
%TO.CFtp,C_0603_1608Metric*%
%TO.CVal,1nF*%
%TO.CLbN,Capacitor_SMD*%
%TO.CMnt,SMD*%
%TO.CRot,-90*%
X251912500Y-102900000D03*
D11*
X252637500Y-101425000D02*
X252637500Y-104375000D01*
X251187500Y-104375000D01*
X251187500Y-101425000D01*
X252637500Y-101425000D01*
D12*
%TO.P,C9,1*%
X251912500Y-102125000D03*
D13*
%TO.P,C9,2*%
X251912500Y-103675000D03*
%TD*%
D10*
%TO.C,R53*%
%TO.CFtp,R_0805_2012Metric*%
%TO.CVal,210*%
%TO.CLbN,Resistor_SMD*%
%TO.CMnt,SMD*%
%TO.CRot,0*%
X137570000Y-94470000D03*
D11*
X139245000Y-93525000D02*
X139245000Y-95415000D01*
X135895000Y-95415000D01*
X135895000Y-93525000D01*
X139245000Y-93525000D01*
D12*
%TO.P,R53,1*%
X136657500Y-94470000D03*
D13*
%TO.P,R53,2*%
X138482500Y-94470000D03*
%TD*%
D10*
%TO.C,FB1*%
%TO.CFtp,L_0805_2012Metric*%
%TO.CVal,FerriteBead*%
%TO.CLbN,Inductor_SMD*%
%TO.CMnt,SMD*%
%TO.CRot,0*%
X140520000Y-117770000D03*
D11*
X142265000Y-116925000D02*
X142265000Y-118615000D01*
X138775000Y-118615000D01*
X138775000Y-116925000D01*
X142265000Y-116925000D01*
D12*
%TO.P,FB1,1*%
X139457500Y-117770000D03*
D13*
%TO.P,FB1,2*%
X141582500Y-117770000D03*
%TD*%
D10*
%TO.C,D21*%
%TO.CFtp,D_SMA*%
%TO.CVal,SMAJ28A*%
%TO.CLbN,Diode_SMD*%
%TO.CMnt,SMD*%
%TO.CRot,0*%
X228325000Y-118400000D03*
D11*
X231820000Y-116655000D02*
X231820000Y-120145000D01*
X224830000Y-120145000D01*
X224830000Y-116655000D01*
X231820000Y-116655000D01*
D12*
%TO.P,D21,1,A1_1*%
X226325000Y-118400000D03*
D13*
%TO.P,D21,2,A2_2*%
X230325000Y-118400000D03*
%TD*%
D10*
%TO.C,R46*%
%TO.CFtp,R_0805_2012Metric*%
%TO.CVal,1k*%
%TO.CLbN,Resistor_SMD*%
%TO.CMnt,SMD*%
%TO.CRot,0*%
X85590000Y-125310000D03*
D11*
X87265000Y-124365000D02*
X87265000Y-126255000D01*
X83915000Y-126255000D01*
X83915000Y-124365000D01*
X87265000Y-124365000D01*
D12*
%TO.P,R46,1*%
X84677500Y-125310000D03*
D13*
%TO.P,R46,2*%
X86502500Y-125310000D03*
%TD*%
D10*
%TO.C,R24*%
%TO.CFtp,R_0805_2012Metric*%
%TO.CVal,10k*%
%TO.CLbN,Resistor_SMD*%
%TO.CMnt,SMD*%
%TO.CRot,0*%
X252412500Y-118400000D03*
D11*
X254087500Y-117455000D02*
X254087500Y-119345000D01*
X250737500Y-119345000D01*
X250737500Y-117455000D01*
X254087500Y-117455000D01*
D12*
%TO.P,R24,1*%
X251500000Y-118400000D03*
D13*
%TO.P,R24,2*%
X253325000Y-118400000D03*
%TD*%
D10*
%TO.C,D11*%
%TO.CFtp,LED_0603_1608Metric*%
%TO.CVal,VSS*%
%TO.CLbN,LED_SMD*%
%TO.CMnt,SMD*%
%TO.CRot,0*%
X122860000Y-96670000D03*
D11*
X124335000Y-95945000D02*
X124335000Y-97395000D01*
X121385000Y-97395000D01*
X121385000Y-95945000D01*
X124335000Y-95945000D01*
D12*
%TO.P,D11,1,K_1*%
X122072500Y-96670000D03*
D13*
%TO.P,D11,2,A_2*%
X123647500Y-96670000D03*
%TD*%
D10*
%TO.C,U4*%
%TO.CFtp,IC_TPS4H160AQPWPRQ1*%
%TO.CVal,TPS4H160AQPWPRQ1*%
%TO.CLbN,TPS4H160AQPWPRQ1*%
%TO.CMnt,SMD*%
%TO.CRot,0*%
X97145000Y-125160000D03*
D11*
X101040000Y-120065000D02*
X101040000Y-130255000D01*
X93250000Y-130255000D01*
X93250000Y-120065000D01*
X101040000Y-120065000D01*
D12*
%TO.P,U4,1,GND_1*%
X94245000Y-120935000D03*
D13*
%TO.P,U4,2,NC_2*%
X94245000Y-121585000D03*
%TO.P,U4,3,IN1_3*%
X94245000Y-122235000D03*
%TO.P,U4,4,IN2_4*%
X94245000Y-122885000D03*
%TO.P,U4,5,IN3_5*%
X94245000Y-123535000D03*
%TO.P,U4,6,IN4_6*%
X94245000Y-124185000D03*
%TO.P,U4,7,~{ST1}_7*%
X94245000Y-124835000D03*
%TO.P,U4,8,~{ST2}_8*%
X94245000Y-125485000D03*
%TO.P,U4,9,~{ST3}_9*%
X94245000Y-126135000D03*
%TO.P,U4,10,~{ST4}_10*%
X94245000Y-126785000D03*
%TO.P,U4,11,CL_11*%
X94245000Y-127435000D03*
%TO.P,U4,12,GND_12*%
X94245000Y-128085000D03*
%TO.P,U4,13,THER_13*%
X94245000Y-128735000D03*
%TO.P,U4,14,DIAG_EN_14*%
X94245000Y-129385000D03*
%TO.P,U4,15,OUT4_15*%
X100045000Y-129385000D03*
%TO.P,U4,16,OUT4_16*%
X100045000Y-128735000D03*
%TO.P,U4,17,OUT3_17*%
X100045000Y-128085000D03*
%TO.P,U4,18,OUT3_18*%
X100045000Y-127435000D03*
%TO.P,U4,19,NC_19*%
X100045000Y-126785000D03*
%TO.P,U4,20,VS_20*%
X100045000Y-126135000D03*
%TO.P,U4,21,VS_21*%
X100045000Y-125485000D03*
%TO.P,U4,22,VS_22*%
X100045000Y-124835000D03*
%TO.P,U4,23,VS_23*%
X100045000Y-124185000D03*
%TO.P,U4,24,NC_24*%
X100045000Y-123535000D03*
%TO.P,U4,25,OUT2_25*%
X100045000Y-122885000D03*
%TO.P,U4,26,OUT2_26*%
X100045000Y-122235000D03*
%TO.P,U4,27,OUT1_27*%
X100045000Y-121585000D03*
%TO.P,U4,28,OUT1_28*%
X100045000Y-120935000D03*
%TO.P,U4,29,EXP_29*%
X97145000Y-125160000D03*
%TO.P,U4,30,EXP_30*%
X95945000Y-120960000D03*
%TO.P,U4,31,EXP_31*%
X97145000Y-120960000D03*
%TO.P,U4,32,EXP_32*%
X98345000Y-120960000D03*
%TO.P,U4,33,EXP_33*%
X95945000Y-122160000D03*
%TO.P,U4,34,EXP_34*%
X97145000Y-122160000D03*
%TO.P,U4,35,EXP_35*%
X98345000Y-122160000D03*
%TO.P,U4,36,EXP_36*%
X95945000Y-123360000D03*
%TO.P,U4,37,EXP_37*%
X97145000Y-123360000D03*
%TO.P,U4,38,EXP_38*%
X98345000Y-123360000D03*
%TO.P,U4,39,EXP_39*%
X95945000Y-124560000D03*
%TO.P,U4,40,EXP_40*%
X97145000Y-124560000D03*
%TO.P,U4,41,EXP_41*%
X98345000Y-124560000D03*
%TO.P,U4,42,EXP_42*%
X95945000Y-125760000D03*
%TO.P,U4,43,EXP_43*%
X97145000Y-125760000D03*
%TO.P,U4,44,EXP_44*%
X98345000Y-125760000D03*
%TO.P,U4,45,EXP_45*%
X95945000Y-126960000D03*
%TO.P,U4,46,EXP_46*%
X97145000Y-126960000D03*
%TO.P,U4,47,EXP_47*%
X98345000Y-126960000D03*
%TO.P,U4,48,EXP_48*%
X95945000Y-128160000D03*
%TO.P,U4,49,EXP_49*%
X97145000Y-128160000D03*
%TO.P,U4,50,EXP_50*%
X98345000Y-128160000D03*
%TO.P,U4,51,EXP_51*%
X95945000Y-129360000D03*
%TO.P,U4,52,EXP_52*%
X97145000Y-129360000D03*
%TO.P,U4,53,EXP_53*%
X98345000Y-129360000D03*
%TD*%
D10*
%TO.C,BOOT1*%
%TO.CFtp,SW_SPST_PTS647_Sx50*%
%TO.CVal,SW_Push*%
%TO.CLbN,Button_Switch_SMD*%
%TO.CMnt,SMD*%
%TO.CRot,0*%
X148360000Y-90320000D03*
D11*
X152005000Y-87625000D02*
X152005000Y-93015000D01*
X144715000Y-93015000D01*
X144715000Y-87625000D01*
X152005000Y-87625000D01*
D12*
%TO.P,BOOT1,1,1_1*%
X145735000Y-88720000D03*
X150985000Y-88720000D03*
D13*
%TO.P,BOOT1,2,2_2*%
X145735000Y-91920000D03*
X150985000Y-91920000D03*
%TD*%
D10*
%TO.C,D5*%
%TO.CFtp,D_SOD-123*%
%TO.CVal,D_Schottky*%
%TO.CLbN,Diode_SMD*%
%TO.CMnt,SMD*%
%TO.CRot,0*%
X103945000Y-95850000D03*
D11*
X106290000Y-94705000D02*
X106290000Y-96995000D01*
X101600000Y-96995000D01*
X101600000Y-94705000D01*
X106290000Y-94705000D01*
D12*
%TO.P,D5,1,K_1*%
X102295000Y-95850000D03*
D13*
%TO.P,D5,2,A_2*%
X105595000Y-95850000D03*
%TD*%
D10*
%TO.C,C7*%
%TO.CFtp,C_0603_1608Metric*%
%TO.CVal,1nF*%
%TO.CLbN,Capacitor_SMD*%
%TO.CMnt,SMD*%
%TO.CRot,-90*%
X262912500Y-125452052D03*
D11*
X263637500Y-123977052D02*
X263637500Y-126927052D01*
X262187500Y-126927052D01*
X262187500Y-123977052D01*
X263637500Y-123977052D01*
D12*
%TO.P,C7,1*%
X262912500Y-124677052D03*
D13*
%TO.P,C7,2*%
X262912500Y-126227052D03*
%TD*%
D10*
%TO.C,D14*%
%TO.CFtp,D_SMA*%
%TO.CVal,SMAJ28A*%
%TO.CLbN,Diode_SMD*%
%TO.CMnt,SMD*%
%TO.CRot,0*%
X203878563Y-118200000D03*
D11*
X207373563Y-116455000D02*
X207373563Y-119945000D01*
X200383563Y-119945000D01*
X200383563Y-116455000D01*
X207373563Y-116455000D01*
D12*
%TO.P,D14,1,A1_1*%
X201878563Y-118200000D03*
D13*
%TO.P,D14,2,A2_2*%
X205878563Y-118200000D03*
%TD*%
D10*
%TO.C,D10*%
%TO.CFtp,D_SOD-123*%
%TO.CVal,3v*%
%TO.CLbN,Diode_SMD*%
%TO.CMnt,SMD*%
%TO.CRot,0*%
X95125000Y-117860000D03*
D11*
X97470000Y-116715000D02*
X97470000Y-119005000D01*
X92780000Y-119005000D01*
X92780000Y-116715000D01*
X97470000Y-116715000D01*
D12*
%TO.P,D10,1,K_1*%
X93475000Y-117860000D03*
D13*
%TO.P,D10,2,A_2*%
X96775000Y-117860000D03*
%TD*%
D10*
%TO.C,C2*%
%TO.CFtp,C_0603_1608Metric*%
%TO.CVal,100nF*%
%TO.CLbN,Capacitor_SMD*%
%TO.CMnt,SMD*%
%TO.CRot,0*%
X128950000Y-80390000D03*
D11*
X130425000Y-79665000D02*
X130425000Y-81115000D01*
X127475000Y-81115000D01*
X127475000Y-79665000D01*
X130425000Y-79665000D01*
D12*
%TO.P,C2,1*%
X128175000Y-80390000D03*
D13*
%TO.P,C2,2*%
X129725000Y-80390000D03*
%TD*%
D10*
%TO.C,R9*%
%TO.CFtp,R_0805_2012Metric*%
%TO.CVal,6k*%
%TO.CLbN,Resistor_SMD*%
%TO.CMnt,SMD*%
%TO.CRot,90*%
X262912500Y-134952052D03*
D11*
X263857500Y-133277052D02*
X263857500Y-136627052D01*
X261967500Y-136627052D01*
X261967500Y-133277052D01*
X263857500Y-133277052D01*
D12*
%TO.P,R9,1*%
X262912500Y-135864552D03*
D13*
%TO.P,R9,2*%
X262912500Y-134039552D03*
%TD*%
D10*
%TO.C,R41*%
%TO.CFtp,R_0805_2012Metric*%
%TO.CVal,1k*%
%TO.CLbN,Resistor_SMD*%
%TO.CMnt,SMD*%
%TO.CRot,-90*%
X180291063Y-112200000D03*
D11*
X181236063Y-110525000D02*
X181236063Y-113875000D01*
X179346063Y-113875000D01*
X179346063Y-110525000D01*
X181236063Y-110525000D01*
D12*
%TO.P,R41,1*%
X180291063Y-111287500D03*
D13*
%TO.P,R41,2*%
X180291063Y-113112500D03*
%TD*%
D10*
%TO.C,D17*%
%TO.CFtp,D_SMA*%
%TO.CVal,SMAJ28A*%
%TO.CLbN,Diode_SMD*%
%TO.CMnt,SMD*%
%TO.CRot,0*%
X239325000Y-140952052D03*
D11*
X242820000Y-139207052D02*
X242820000Y-142697052D01*
X235830000Y-142697052D01*
X235830000Y-139207052D01*
X242820000Y-139207052D01*
D12*
%TO.P,D17,1,A1_1*%
X237325000Y-140952052D03*
D13*
%TO.P,D17,2,A2_2*%
X241325000Y-140952052D03*
%TD*%
D10*
%TO.C,D13*%
%TO.CFtp,LED_0603_1608Metric*%
%TO.CVal,5V*%
%TO.CLbN,LED_SMD*%
%TO.CMnt,SMD*%
%TO.CRot,0*%
X122860000Y-101850000D03*
D11*
X124335000Y-101125000D02*
X124335000Y-102575000D01*
X121385000Y-102575000D01*
X121385000Y-101125000D01*
X124335000Y-101125000D01*
D12*
%TO.P,D13,1,K_1*%
X122072500Y-101850000D03*
D13*
%TO.P,D13,2,A_2*%
X123647500Y-101850000D03*
%TD*%
D10*
%TO.C,C3*%
%TO.CFtp,C_0603_1608Metric*%
%TO.CVal,100nF*%
%TO.CLbN,Capacitor_SMD*%
%TO.CMnt,SMD*%
%TO.CRot,0*%
X128950000Y-82900000D03*
D11*
X130425000Y-82175000D02*
X130425000Y-83625000D01*
X127475000Y-83625000D01*
X127475000Y-82175000D01*
X130425000Y-82175000D01*
D12*
%TO.P,C3,1*%
X128175000Y-82900000D03*
D13*
%TO.P,C3,2*%
X129725000Y-82900000D03*
%TD*%
D10*
%TO.C,R18*%
%TO.CFtp,R_0805_2012Metric*%
%TO.CVal,10k*%
%TO.CLbN,Resistor_SMD*%
%TO.CMnt,SMD*%
%TO.CRot,0*%
X266825000Y-138952052D03*
D11*
X268500000Y-138007052D02*
X268500000Y-139897052D01*
X265150000Y-139897052D01*
X265150000Y-138007052D01*
X268500000Y-138007052D01*
D12*
%TO.P,R18,1*%
X265912500Y-138952052D03*
D13*
%TO.P,R18,2*%
X267737500Y-138952052D03*
%TD*%
D10*
%TO.C,D23*%
%TO.CFtp,LED_0603_1608Metric*%
%TO.CVal,5V*%
%TO.CLbN,LED_SMD*%
%TO.CMnt,SMD*%
%TO.CRot,0*%
X140290000Y-126340000D03*
D11*
X141765000Y-125615000D02*
X141765000Y-127065000D01*
X138815000Y-127065000D01*
X138815000Y-125615000D01*
X141765000Y-125615000D01*
D12*
%TO.P,D23,1,K_1*%
X139502500Y-126340000D03*
D13*
%TO.P,D23,2,A_2*%
X141077500Y-126340000D03*
%TD*%
D10*
%TO.C,R25*%
%TO.CFtp,R_0805_2012Metric*%
%TO.CVal,3k*%
%TO.CLbN,Resistor_SMD*%
%TO.CMnt,SMD*%
%TO.CRot,180*%
X177291063Y-111200000D03*
D11*
X178966063Y-110255000D02*
X178966063Y-112145000D01*
X175616063Y-112145000D01*
X175616063Y-110255000D01*
X178966063Y-110255000D01*
D12*
%TO.P,R25,1*%
X178203563Y-111200000D03*
D13*
%TO.P,R25,2*%
X176378563Y-111200000D03*
%TD*%
D10*
%TO.C,Q8*%
%TO.CFtp,TO-263-7_TabPin8*%
%TO.CVal,BTN8982TA*%
%TO.CLbN,Package_TO_SOT_SMD*%
%TO.CMnt,SMD*%
%TO.CRot,180*%
X234675000Y-133262052D03*
D11*
X244870000Y-127617052D02*
X244870000Y-138907052D01*
X228230000Y-138907052D01*
X228230000Y-127617052D01*
X244870000Y-127617052D01*
D12*
%TO.P,Q8,1*%
X242325000Y-137072052D03*
D13*
%TO.P,Q8,2,IN_2*%
X242325000Y-135802052D03*
%TO.P,Q8,3,INH_3*%
X242325000Y-134532052D03*
%TO.P,Q8,4*%
X242325000Y-133262052D03*
%TO.P,Q8,5,SR_5*%
X242325000Y-131992052D03*
%TO.P,Q8,6,IS_6*%
X242325000Y-130722052D03*
%TO.P,Q8,7*%
X242325000Y-129452052D03*
%TO.P,Q8,8*%
X233175000Y-133262052D03*
%TD*%
D10*
%TO.C,R26*%
%TO.CFtp,R_0805_2012Metric*%
%TO.CVal,3k*%
%TO.CLbN,Resistor_SMD*%
%TO.CMnt,SMD*%
%TO.CRot,0*%
X265912500Y-132452052D03*
D11*
X267587500Y-131507052D02*
X267587500Y-133397052D01*
X264237500Y-133397052D01*
X264237500Y-131507052D01*
X267587500Y-131507052D01*
D12*
%TO.P,R26,1*%
X265000000Y-132452052D03*
D13*
%TO.P,R26,2*%
X266825000Y-132452052D03*
%TD*%
D10*
%TO.C,R47*%
%TO.CFtp,R_0805_2012Metric*%
%TO.CVal,1k*%
%TO.CLbN,Resistor_SMD*%
%TO.CMnt,SMD*%
%TO.CRot,0*%
X90000000Y-107610000D03*
D11*
X91675000Y-106665000D02*
X91675000Y-108555000D01*
X88325000Y-108555000D01*
X88325000Y-106665000D01*
X91675000Y-106665000D01*
D12*
%TO.P,R47,1*%
X89087500Y-107610000D03*
D13*
%TO.P,R47,2*%
X90912500Y-107610000D03*
%TD*%
D10*
%TO.C,R14*%
%TO.CFtp,R_0805_2012Metric*%
%TO.CVal,6k*%
%TO.CLbN,Resistor_SMD*%
%TO.CMnt,SMD*%
%TO.CRot,-90*%
X168912500Y-130700000D03*
D11*
X169857500Y-129025000D02*
X169857500Y-132375000D01*
X167967500Y-132375000D01*
X167967500Y-129025000D01*
X169857500Y-129025000D01*
D12*
%TO.P,R14,1*%
X168912500Y-129787500D03*
D13*
%TO.P,R14,2*%
X168912500Y-131612500D03*
%TD*%
D10*
%TO.C,Q5*%
%TO.CFtp,TO-252-2*%
%TO.CVal,QM6015D*%
%TO.CLbN,Package_TO_SOT_SMD*%
%TO.CMnt,SMD*%
%TO.CRot,0*%
X137870000Y-100115000D03*
D11*
X142575000Y-96620000D02*
X142575000Y-103610000D01*
X131485000Y-103610000D01*
X131485000Y-96620000D01*
X142575000Y-96620000D01*
D12*
%TO.P,Q5,1,G_1*%
X132830000Y-97835000D03*
D13*
%TO.P,Q5,2,D_2*%
X139130000Y-100115000D03*
%TO.P,Q5,3,S_3*%
X132830000Y-102395000D03*
%TD*%
D10*
%TO.C,D9*%
%TO.CFtp,D_SOD-123*%
%TO.CVal,10V*%
%TO.CLbN,Diode_SMD*%
%TO.CMnt,SMD*%
%TO.CRot,0*%
X103945000Y-99200000D03*
D11*
X106290000Y-98055000D02*
X106290000Y-100345000D01*
X101600000Y-100345000D01*
X101600000Y-98055000D01*
X106290000Y-98055000D01*
D12*
%TO.P,D9,1,K_1*%
X102295000Y-99200000D03*
D13*
%TO.P,D9,2,A_2*%
X105595000Y-99200000D03*
%TD*%
D10*
%TO.C,C14*%
%TO.CFtp,C_1210_3225Metric*%
%TO.CVal,10uF*%
%TO.CLbN,Capacitor_SMD*%
%TO.CMnt,SMD*%
%TO.CRot,90*%
X173500000Y-57000000D03*
D11*
X175095000Y-54705000D02*
X175095000Y-59295000D01*
X171905000Y-59295000D01*
X171905000Y-54705000D01*
X175095000Y-54705000D01*
D12*
%TO.P,C14,1*%
X173500000Y-58475000D03*
D13*
%TO.P,C14,2*%
X173500000Y-55525000D03*
%TD*%
D10*
%TO.C,D22*%
%TO.CFtp,D_SOD-123*%
%TO.CVal,D_Schottky*%
%TO.CLbN,Diode_SMD*%
%TO.CMnt,SMD*%
%TO.CRot,0*%
X126535000Y-136530000D03*
D11*
X128880000Y-135385000D02*
X128880000Y-137675000D01*
X124190000Y-137675000D01*
X124190000Y-135385000D01*
X128880000Y-135385000D01*
D12*
%TO.P,D22,1,K_1*%
X124885000Y-136530000D03*
D13*
%TO.P,D22,2,A_2*%
X128185000Y-136530000D03*
%TD*%
D10*
%TO.C,Q9*%
%TO.CFtp,TO-263-7_TabPin8*%
%TO.CVal,BTN8982TA*%
%TO.CLbN,Package_TO_SOT_SMD*%
%TO.CMnt,SMD*%
%TO.CRot,0*%
X197150000Y-132390000D03*
D11*
X203595000Y-126745000D02*
X203595000Y-138035000D01*
X186955000Y-138035000D01*
X186955000Y-126745000D01*
X203595000Y-126745000D01*
D12*
%TO.P,Q9,1*%
X189500000Y-128580000D03*
D13*
%TO.P,Q9,2,IN_2*%
X189500000Y-129850000D03*
%TO.P,Q9,3,INH_3*%
X189500000Y-131120000D03*
%TO.P,Q9,4*%
X189500000Y-132390000D03*
%TO.P,Q9,5,SR_5*%
X189500000Y-133660000D03*
%TO.P,Q9,6,IS_6*%
X189500000Y-134930000D03*
%TO.P,Q9,7*%
X189500000Y-136200000D03*
%TO.P,Q9,8*%
X198650000Y-132390000D03*
%TD*%
D10*
%TO.C,D18*%
%TO.CFtp,D_SMA*%
%TO.CVal,SMAJ28A*%
%TO.CLbN,Diode_SMD*%
%TO.CMnt,SMD*%
%TO.CRot,0*%
X192500000Y-140200000D03*
D11*
X195995000Y-138455000D02*
X195995000Y-141945000D01*
X189005000Y-141945000D01*
X189005000Y-138455000D01*
X195995000Y-138455000D01*
D12*
%TO.P,D18,1,A1_1*%
X190500000Y-140200000D03*
D13*
%TO.P,D18,2,A2_2*%
X194500000Y-140200000D03*
%TD*%
D10*
%TO.C,U5*%
%TO.CFtp,SOT-666*%
%TO.CVal,USBLC6-2P6*%
%TO.CLbN,Package_TO_SOT_SMD*%
%TO.CMnt,SMD*%
%TO.CRot,0*%
X140270000Y-132055000D03*
D11*
X141765000Y-130960000D02*
X141765000Y-133150000D01*
X138775000Y-133150000D01*
X138775000Y-130960000D01*
X141765000Y-130960000D01*
D12*
%TO.P,U5,1,I/O1_1*%
X139420000Y-131517500D03*
D13*
%TO.P,U5,2,GND_2*%
X139345000Y-132055000D03*
%TO.P,U5,3,I/O2_3*%
X139420000Y-132592500D03*
%TO.P,U5,4,I/O2_4*%
X141120000Y-132592500D03*
%TO.P,U5,5,VBUS_5*%
X141195000Y-132055000D03*
%TO.P,U5,6,I/O1_6*%
X141120000Y-131517500D03*
%TD*%
D10*
%TO.C,R32*%
%TO.CFtp,R_0805_2012Metric*%
%TO.CVal,3k*%
%TO.CLbN,Resistor_SMD*%
%TO.CMnt,SMD*%
%TO.CRot,0*%
X81180000Y-116460000D03*
D11*
X82855000Y-115515000D02*
X82855000Y-117405000D01*
X79505000Y-117405000D01*
X79505000Y-115515000D01*
X82855000Y-115515000D01*
D12*
%TO.P,R32,1*%
X80267500Y-116460000D03*
D13*
%TO.P,R32,2*%
X82092500Y-116460000D03*
%TD*%
D10*
%TO.C,R1*%
%TO.CFtp,R_0805_2012Metric*%
%TO.CVal,5\u002C1K*%
%TO.CLbN,Resistor_SMD*%
%TO.CMnt,SMD*%
%TO.CRot,0*%
X133160000Y-88570000D03*
D11*
X134835000Y-87625000D02*
X134835000Y-89515000D01*
X131485000Y-89515000D01*
X131485000Y-87625000D01*
X134835000Y-87625000D01*
D12*
%TO.P,R1,1*%
X132247500Y-88570000D03*
D13*
%TO.P,R1,2*%
X134072500Y-88570000D03*
%TD*%
D10*
%TO.C,C4*%
%TO.CFtp,C_1206_3216Metric*%
%TO.CVal,10uF*%
%TO.CLbN,Capacitor_SMD*%
%TO.CMnt,SMD*%
%TO.CRot,0*%
X123640000Y-90350000D03*
D11*
X125935000Y-89205000D02*
X125935000Y-91495000D01*
X121345000Y-91495000D01*
X121345000Y-89205000D01*
X125935000Y-89205000D01*
D12*
%TO.P,C4,1*%
X122165000Y-90350000D03*
D13*
%TO.P,C4,2*%
X125115000Y-90350000D03*
%TD*%
D10*
%TO.C,J7*%
%TO.CFtp,PinHeader_1x04_P2.54mm_Vertical*%
%TO.CVal,Conn_01x04_Pin*%
%TO.CLbN,Connector_PinHeader_2.54mm*%
%TO.CMnt,TH*%
%TO.CRot,0*%
X130500000Y-118690000D03*
D11*
X132265000Y-116925000D02*
X132265000Y-128075000D01*
X128735000Y-128075000D01*
X128735000Y-116925000D01*
X132265000Y-116925000D01*
D12*
%TO.P,J7,1,Pin_1_1*%
X130500000Y-118690000D03*
D13*
%TO.P,J7,2,Pin_2_2*%
X130500000Y-121230000D03*
%TO.P,J7,3,Pin_3_3*%
X130500000Y-123770000D03*
%TO.P,J7,4,Pin_4_4*%
X130500000Y-126310000D03*
%TD*%
D10*
%TO.C,R17*%
%TO.CFtp,R_0805_2012Metric*%
%TO.CVal,10k*%
%TO.CLbN,Resistor_SMD*%
%TO.CMnt,SMD*%
%TO.CRot,180*%
X176378563Y-104700000D03*
D11*
X178053563Y-103755000D02*
X178053563Y-105645000D01*
X174703563Y-105645000D01*
X174703563Y-103755000D01*
X178053563Y-103755000D01*
D12*
%TO.P,R17,1*%
X177291063Y-104700000D03*
D13*
%TO.P,R17,2*%
X175466063Y-104700000D03*
%TD*%
D10*
%TO.C,R57*%
%TO.CFtp,R_0805_2012Metric*%
%TO.CVal,5.1k*%
%TO.CLbN,Resistor_SMD*%
%TO.CMnt,SMD*%
%TO.CRot,180*%
X179291063Y-115200000D03*
D11*
X180966063Y-114255000D02*
X180966063Y-116145000D01*
X177616063Y-116145000D01*
X177616063Y-114255000D01*
X180966063Y-114255000D01*
D12*
%TO.P,R57,1*%
X180203563Y-115200000D03*
D13*
%TO.P,R57,2*%
X178378563Y-115200000D03*
%TD*%
D10*
%TO.C,J6*%
%TO.CFtp,JST_SH_BM04B-SRSS-TB_1x04-1MP_P1.00mm_Vertical*%
%TO.CVal,Conn_01x04_MountingPin*%
%TO.CLbN,Connector_JST*%
%TO.CMnt,SMD*%
%TO.CRot,0*%
X128040000Y-131730000D03*
D11*
X126345000Y-129135000D02*
X126345000Y-129335000D01*
X129735000Y-129335000D01*
X129735000Y-129135000D01*
X131935000Y-129135000D01*
X131935000Y-131925000D01*
X131535000Y-131925000D01*
X131535000Y-133225000D01*
X130335000Y-133225000D01*
X130335000Y-134325000D01*
X125745000Y-134325000D01*
X125745000Y-133225000D01*
X124545000Y-133225000D01*
X124545000Y-131925000D01*
X124145000Y-131925000D01*
X124145000Y-129135000D01*
X126345000Y-129135000D01*
D12*
%TO.P,J6,1,Pin_1_1*%
X126540000Y-133055000D03*
D13*
%TO.P,J6,2,Pin_2_2*%
X127540000Y-133055000D03*
%TO.P,J6,3,Pin_3_3*%
X128540000Y-133055000D03*
%TO.P,J6,4,Pin_4_4*%
X129540000Y-133055000D03*
%TO.P,J6,MP,MountPin_MP*%
X125240000Y-130530000D03*
X130840000Y-130530000D03*
%TD*%
D10*
%TO.C,R52*%
%TO.CFtp,R_0805_2012Metric*%
%TO.CVal,10k*%
%TO.CLbN,Resistor_SMD*%
%TO.CMnt,SMD*%
%TO.CRot,0*%
X137570000Y-91520000D03*
D11*
X139245000Y-90575000D02*
X139245000Y-92465000D01*
X135895000Y-92465000D01*
X135895000Y-90575000D01*
X139245000Y-90575000D01*
D12*
%TO.P,R52,1*%
X136657500Y-91520000D03*
D13*
%TO.P,R52,2*%
X138482500Y-91520000D03*
%TD*%
D10*
%TO.C,R61*%
%TO.CFtp,R_0805_2012Metric*%
%TO.CVal,210*%
%TO.CLbN,Resistor_SMD*%
%TO.CMnt,SMD*%
%TO.CRot,0*%
X140450000Y-120620000D03*
D11*
X142125000Y-119675000D02*
X142125000Y-121565000D01*
X138775000Y-121565000D01*
X138775000Y-119675000D01*
X142125000Y-119675000D01*
D12*
%TO.P,R61,1*%
X139537500Y-120620000D03*
D13*
%TO.P,R61,2*%
X141362500Y-120620000D03*
%TD*%
D10*
%TO.C,J2*%
%TO.CFtp,CONN2_2604-1102_WAG*%
%TO.CVal,2604-1102*%
%TO.CLbN,wago1102*%
%TO.CMnt,TH*%
%TO.CRot,0*%
X84715001Y-80355200D03*
D14*
X83715001Y-79355200D02*
X83715001Y-89555199D01*
X90715001Y-89555199D01*
X90715001Y-79355200D01*
X83715001Y-79355200D01*
D12*
%TO.P,J2,1,1_1_1*%
X84715001Y-80355200D03*
D13*
%TO.P,J2,2,1_2_2*%
X84715001Y-88555199D03*
%TO.P,J2,3,2_1_3*%
X89715001Y-80355200D03*
%TO.P,J2,4,2_2_4*%
X89715001Y-88555199D03*
%TD*%
D10*
%TO.C,C22*%
%TO.CFtp,C_0603_1608Metric*%
%TO.CVal,100nF*%
%TO.CLbN,Capacitor_SMD*%
%TO.CMnt,SMD*%
%TO.CRot,90*%
X195378563Y-110200000D03*
D11*
X196103563Y-108725000D02*
X196103563Y-111675000D01*
X194653563Y-111675000D01*
X194653563Y-108725000D01*
X196103563Y-108725000D01*
D12*
%TO.P,C22,1*%
X195378563Y-110975000D03*
D13*
%TO.P,C22,2*%
X195378563Y-109425000D03*
%TD*%
D10*
%TO.C,D16*%
%TO.CFtp,D_SMA*%
%TO.CVal,SMAJ28A*%
%TO.CLbN,Diode_SMD*%
%TO.CMnt,SMD*%
%TO.CRot,180*%
X239325000Y-125452052D03*
D11*
X242820000Y-123707052D02*
X242820000Y-127197052D01*
X235830000Y-127197052D01*
X235830000Y-123707052D01*
X242820000Y-123707052D01*
D12*
%TO.P,D16,1,A1_1*%
X241325000Y-125452052D03*
D13*
%TO.P,D16,2,A2_2*%
X237325000Y-125452052D03*
%TD*%
D10*
%TO.C,R16*%
%TO.CFtp,R_0805_2012Metric*%
%TO.CVal,10k*%
%TO.CLbN,Resistor_SMD*%
%TO.CMnt,SMD*%
%TO.CRot,180*%
X263412500Y-138952052D03*
D11*
X265087500Y-138007052D02*
X265087500Y-139897052D01*
X261737500Y-139897052D01*
X261737500Y-138007052D01*
X265087500Y-138007052D01*
D12*
%TO.P,R16,1*%
X264325000Y-138952052D03*
D13*
%TO.P,R16,2*%
X262500000Y-138952052D03*
%TD*%
D10*
%TO.C,R29*%
%TO.CFtp,R_0805_2012Metric*%
%TO.CVal,10k*%
%TO.CLbN,Resistor_SMD*%
%TO.CMnt,SMD*%
%TO.CRot,0*%
X255825000Y-116400000D03*
D11*
X257500000Y-115455000D02*
X257500000Y-117345000D01*
X254150000Y-117345000D01*
X254150000Y-115455000D01*
X257500000Y-115455000D01*
D12*
%TO.P,R29,1*%
X254912500Y-116400000D03*
D13*
%TO.P,R29,2*%
X256737500Y-116400000D03*
%TD*%
D10*
%TO.C,D3*%
%TO.CFtp,D_SOD-123*%
%TO.CVal,3v*%
%TO.CLbN,Diode_SMD*%
%TO.CMnt,SMD*%
%TO.CRot,180*%
X165412500Y-130700000D03*
D11*
X167757500Y-129555000D02*
X167757500Y-131845000D01*
X163067500Y-131845000D01*
X163067500Y-129555000D01*
X167757500Y-129555000D01*
D12*
%TO.P,D3,1,K_1*%
X167062500Y-130700000D03*
D13*
%TO.P,D3,2,A_2*%
X163762500Y-130700000D03*
%TD*%
D10*
%TO.C,C1*%
%TO.CFtp,C_0603_1608Metric*%
%TO.CVal,100nF*%
%TO.CLbN,Capacitor_SMD*%
%TO.CMnt,SMD*%
%TO.CRot,0*%
X128950000Y-77880000D03*
D11*
X130425000Y-77155000D02*
X130425000Y-78605000D01*
X127475000Y-78605000D01*
X127475000Y-77155000D01*
X130425000Y-77155000D01*
D12*
%TO.P,C1,1*%
X128175000Y-77880000D03*
D13*
%TO.P,C1,2*%
X129725000Y-77880000D03*
%TD*%
D10*
%TO.C,C11*%
%TO.CFtp,C_0603_1608Metric*%
%TO.CVal,47uF*%
%TO.CLbN,Capacitor_SMD*%
%TO.CMnt,SMD*%
%TO.CRot,0*%
X180500000Y-76500000D03*
D11*
X181975000Y-75775000D02*
X181975000Y-77225000D01*
X179025000Y-77225000D01*
X179025000Y-75775000D01*
X181975000Y-75775000D01*
D12*
%TO.P,C11,1*%
X179725000Y-76500000D03*
D13*
%TO.P,C11,2*%
X181275000Y-76500000D03*
%TD*%
D10*
%TO.C,D12*%
%TO.CFtp,LED_0603_1608Metric*%
%TO.CVal,3.3V*%
%TO.CLbN,LED_SMD*%
%TO.CMnt,SMD*%
%TO.CRot,0*%
X122860000Y-99260000D03*
D11*
X124335000Y-98535000D02*
X124335000Y-99985000D01*
X121385000Y-99985000D01*
X121385000Y-98535000D01*
X124335000Y-98535000D01*
D12*
%TO.P,D12,1,K_1*%
X122072500Y-99260000D03*
D13*
%TO.P,D12,2,A_2*%
X123647500Y-99260000D03*
%TD*%
D10*
%TO.C,R30*%
%TO.CFtp,R_0805_2012Metric*%
%TO.CVal,500*%
%TO.CLbN,Resistor_SMD*%
%TO.CMnt,SMD*%
%TO.CRot,-90*%
X253825000Y-102900000D03*
D11*
X254770000Y-101225000D02*
X254770000Y-104575000D01*
X252880000Y-104575000D01*
X252880000Y-101225000D01*
X254770000Y-101225000D01*
D12*
%TO.P,R30,1*%
X253825000Y-101987500D03*
D13*
%TO.P,R30,2*%
X253825000Y-103812500D03*
%TD*%
D10*
%TO.C,D24*%
%TO.CFtp,LED_0603_1608Metric*%
%TO.CVal,5V*%
%TO.CLbN,LED_SMD*%
%TO.CMnt,SMD*%
%TO.CRot,0*%
X140290000Y-128930000D03*
D11*
X141765000Y-128205000D02*
X141765000Y-129655000D01*
X138815000Y-129655000D01*
X138815000Y-128205000D01*
X141765000Y-128205000D01*
D12*
%TO.P,D24,1,K_1*%
X139502500Y-128930000D03*
D13*
%TO.P,D24,2,A_2*%
X141077500Y-128930000D03*
%TD*%
D10*
%TO.C,R56*%
%TO.CFtp,R_0805_2012Metric*%
%TO.CVal,10K*%
%TO.CLbN,Resistor_SMD*%
%TO.CMnt,SMD*%
%TO.CRot,90*%
X183500000Y-49087500D03*
D11*
X184445000Y-47412500D02*
X184445000Y-50762500D01*
X182555000Y-50762500D01*
X182555000Y-47412500D01*
X184445000Y-47412500D01*
D12*
%TO.P,R56,1*%
X183500000Y-50000000D03*
D13*
%TO.P,R56,2*%
X183500000Y-48175000D03*
%TD*%
D10*
%TO.C,R40*%
%TO.CFtp,R_0805_2012Metric*%
%TO.CVal,10K*%
%TO.CLbN,Resistor_SMD*%
%TO.CMnt,SMD*%
%TO.CRot,0*%
X85590000Y-119410000D03*
D11*
X87265000Y-118465000D02*
X87265000Y-120355000D01*
X83915000Y-120355000D01*
X83915000Y-118465000D01*
X87265000Y-118465000D01*
D12*
%TO.P,R40,1*%
X84677500Y-119410000D03*
D13*
%TO.P,R40,2*%
X86502500Y-119410000D03*
%TD*%
D10*
%TO.C,R6*%
%TO.CFtp,R_0805_2012Metric*%
%TO.CVal,10K*%
%TO.CLbN,Resistor_SMD*%
%TO.CMnt,SMD*%
%TO.CRot,0*%
X81180000Y-110560000D03*
D11*
X82855000Y-109615000D02*
X82855000Y-111505000D01*
X79505000Y-111505000D01*
X79505000Y-109615000D01*
X82855000Y-109615000D01*
D12*
%TO.P,R6,1*%
X80267500Y-110560000D03*
D13*
%TO.P,R6,2*%
X82092500Y-110560000D03*
%TD*%
D10*
%TO.C,L1*%
%TO.CFtp,L_Bourns_SRR1208_12.7x12.7mm*%
%TO.CVal,12uH*%
%TO.CLbN,Inductor_SMD*%
%TO.CMnt,SMD*%
%TO.CRot,-90*%
X188500000Y-65500000D03*
D11*
X192245000Y-58255000D02*
X192245000Y-58905000D01*
X195095000Y-58905000D01*
X195095000Y-72095000D01*
X192245000Y-72095000D01*
X192245000Y-72745000D01*
X184755000Y-72745000D01*
X184755000Y-72095000D01*
X181905000Y-72095000D01*
X181905000Y-58905000D01*
X184755000Y-58905000D01*
X184755000Y-58255000D01*
X192245000Y-58255000D01*
D12*
%TO.P,L1,1,1_1*%
X188500000Y-60500000D03*
D13*
%TO.P,L1,2,2_2*%
X188500000Y-70500000D03*
%TD*%
D10*
%TO.C,TP3*%
%TO.CFtp,TestPoint_Loop_D2.50mm_Drill1.85mm*%
%TO.CVal,3.3V*%
%TO.CLbN,TestPoint*%
%TO.CMnt,TH*%
%TO.CRot,0*%
X135520000Y-130020000D03*
D11*
X135885499Y-127853159D02*
X136171051Y-127921209D01*
X136444982Y-128026712D01*
X136702412Y-128167787D01*
X136938734Y-128341910D01*
X137149743Y-128545982D01*
X137331670Y-128776360D01*
X137481267Y-129028928D01*
X137595864Y-129299182D01*
X137673417Y-129582298D01*
X137712549Y-129873267D01*
X137714999Y-130020000D01*
X137712549Y-130166732D01*
X137673417Y-130457701D01*
X137595864Y-130740817D01*
X137481267Y-131011071D01*
X137331670Y-131263639D01*
X137149743Y-131494017D01*
X136938734Y-131698089D01*
X136702412Y-131872212D01*
X136444982Y-132013287D01*
X136171051Y-132118790D01*
X135885499Y-132186840D01*
X135593425Y-132216223D01*
X135300043Y-132206415D01*
X135010591Y-132157590D01*
X134730214Y-132070616D01*
X134463942Y-131947053D01*
X134216518Y-131789103D01*
X133992349Y-131599580D01*
X133795442Y-131381871D01*
X133629311Y-131139859D01*
X133496915Y-130877856D01*
X133400627Y-130600560D01*
X133342155Y-130312890D01*
X133322549Y-130020000D01*
X133342155Y-129727109D01*
X133400627Y-129439439D01*
X133496915Y-129162143D01*
X133629311Y-128900140D01*
X133795442Y-128658128D01*
X133992349Y-128440419D01*
X134216518Y-128250896D01*
X134463942Y-128092946D01*
X134730214Y-127969383D01*
X135010591Y-127882409D01*
X135300043Y-127833584D01*
X135593425Y-127823776D01*
X135885499Y-127853159D01*
D12*
%TO.P,TP3,1,1_1*%
X135520000Y-130020000D03*
%TD*%
D10*
%TO.C,R10*%
%TO.CFtp,R_0805_2012Metric*%
%TO.CVal,10k*%
%TO.CLbN,Resistor_SMD*%
%TO.CMnt,SMD*%
%TO.CRot,180*%
X179791063Y-102700000D03*
D11*
X181466063Y-101755000D02*
X181466063Y-103645000D01*
X178116063Y-103645000D01*
X178116063Y-101755000D01*
X181466063Y-101755000D01*
D12*
%TO.P,R10,1*%
X180703563Y-102700000D03*
D13*
%TO.P,R10,2*%
X178878563Y-102700000D03*
%TD*%
D10*
%TO.C,R3*%
%TO.CFtp,R_0805_2012Metric*%
%TO.CVal,5\u002C1K*%
%TO.CLbN,Resistor_SMD*%
%TO.CMnt,SMD*%
%TO.CRot,0*%
X133160000Y-91520000D03*
D11*
X134835000Y-90575000D02*
X134835000Y-92465000D01*
X131485000Y-92465000D01*
X131485000Y-90575000D01*
X134835000Y-90575000D01*
D12*
%TO.P,R3,1*%
X132247500Y-91520000D03*
D13*
%TO.P,R3,2*%
X134072500Y-91520000D03*
%TD*%
D10*
%TO.C,R4*%
%TO.CFtp,R_0805_2012Metric*%
%TO.CVal,10K*%
%TO.CLbN,Resistor_SMD*%
%TO.CMnt,SMD*%
%TO.CRot,0*%
X133160000Y-94470000D03*
D11*
X134835000Y-93525000D02*
X134835000Y-95415000D01*
X131485000Y-95415000D01*
X131485000Y-93525000D01*
X134835000Y-93525000D01*
D12*
%TO.P,R4,1*%
X132247500Y-94470000D03*
D13*
%TO.P,R4,2*%
X134072500Y-94470000D03*
%TD*%
D10*
%TO.C,R8*%
%TO.CFtp,R_0805_2012Metric*%
%TO.CVal,6k*%
%TO.CLbN,Resistor_SMD*%
%TO.CMnt,SMD*%
%TO.CRot,-90*%
X180291063Y-108700000D03*
D11*
X181236063Y-107025000D02*
X181236063Y-110375000D01*
X179346063Y-110375000D01*
X179346063Y-107025000D01*
X181236063Y-107025000D01*
D12*
%TO.P,R8,1*%
X180291063Y-107787500D03*
D13*
%TO.P,R8,2*%
X180291063Y-109612500D03*
%TD*%
D10*
%TO.C,R38*%
%TO.CFtp,R_0805_2012Metric*%
%TO.CVal,3k*%
%TO.CLbN,Resistor_SMD*%
%TO.CMnt,SMD*%
%TO.CRot,0*%
X85590000Y-113510000D03*
D11*
X87265000Y-112565000D02*
X87265000Y-114455000D01*
X83915000Y-114455000D01*
X83915000Y-112565000D01*
X87265000Y-112565000D01*
D12*
%TO.P,R38,1*%
X84677500Y-113510000D03*
D13*
%TO.P,R38,2*%
X86502500Y-113510000D03*
%TD*%
D10*
%TO.C,R45*%
%TO.CFtp,R_0805_2012Metric*%
%TO.CVal,1k*%
%TO.CLbN,Resistor_SMD*%
%TO.CMnt,SMD*%
%TO.CRot,0*%
X85590000Y-122360000D03*
D11*
X87265000Y-121415000D02*
X87265000Y-123305000D01*
X83915000Y-123305000D01*
X83915000Y-121415000D01*
X87265000Y-121415000D01*
D12*
%TO.P,R45,1*%
X84677500Y-122360000D03*
D13*
%TO.P,R45,2*%
X86502500Y-122360000D03*
%TD*%
D10*
%TO.C,R48*%
%TO.CFtp,R_0805_2012Metric*%
%TO.CVal,1k*%
%TO.CLbN,Resistor_SMD*%
%TO.CMnt,SMD*%
%TO.CRot,0*%
X90000000Y-110560000D03*
D11*
X91675000Y-109615000D02*
X91675000Y-111505000D01*
X88325000Y-111505000D01*
X88325000Y-109615000D01*
X91675000Y-109615000D01*
D12*
%TO.P,R48,1*%
X89087500Y-110560000D03*
D13*
%TO.P,R48,2*%
X90912500Y-110560000D03*
%TD*%
D10*
%TO.C,D19*%
%TO.CFtp,D_SMA*%
%TO.CVal,SMAJ28A*%
%TO.CLbN,Diode_SMD*%
%TO.CMnt,SMD*%
%TO.CRot,180*%
X192500000Y-124700000D03*
D11*
X195995000Y-122955000D02*
X195995000Y-126445000D01*
X189005000Y-126445000D01*
X189005000Y-122955000D01*
X195995000Y-122955000D01*
D12*
%TO.P,D19,1,A1_1*%
X194500000Y-124700000D03*
D13*
%TO.P,D19,2,A2_2*%
X190500000Y-124700000D03*
%TD*%
D10*
%TO.C,R62*%
%TO.CFtp,R_0805_2012Metric*%
%TO.CVal,210*%
%TO.CLbN,Resistor_SMD*%
%TO.CMnt,SMD*%
%TO.CRot,0*%
X140450000Y-123570000D03*
D11*
X142125000Y-122625000D02*
X142125000Y-124515000D01*
X138775000Y-124515000D01*
X138775000Y-122625000D01*
X142125000Y-122625000D01*
D12*
%TO.P,R62,1*%
X139537500Y-123570000D03*
D13*
%TO.P,R62,2*%
X141362500Y-123570000D03*
%TD*%
D10*
%TO.C,R59*%
%TO.CFtp,R_0805_2012Metric*%
%TO.CVal,5.1k*%
%TO.CLbN,Resistor_SMD*%
%TO.CMnt,SMD*%
%TO.CRot,180*%
X167912500Y-137200000D03*
D11*
X169587500Y-136255000D02*
X169587500Y-138145000D01*
X166237500Y-138145000D01*
X166237500Y-136255000D01*
X169587500Y-136255000D01*
D12*
%TO.P,R59,1*%
X168825000Y-137200000D03*
D13*
%TO.P,R59,2*%
X167000000Y-137200000D03*
%TD*%
D10*
%TO.C,J3*%
%TO.CFtp,CONN4_2604-1104_WAG*%
%TO.CVal,2604-1104*%
%TO.CLbN,wago1104*%
%TO.CMnt,TH*%
%TO.CRot,0*%
X208499999Y-148300001D03*
D14*
X207499999Y-147300001D02*
X207499999Y-157500000D01*
X224500000Y-157500000D01*
X224500000Y-147300001D01*
X207499999Y-147300001D01*
D12*
%TO.P,J3,1,1_1_1*%
X208499999Y-148300001D03*
D13*
%TO.P,J3,2,1_2_2*%
X208499999Y-156500000D03*
%TO.P,J3,3,2_1_3*%
X213499999Y-148300001D03*
%TO.P,J3,4,2_2_4*%
X213499999Y-156500000D03*
%TO.P,J3,5,3_1_5*%
X218500000Y-148300001D03*
%TO.P,J3,6,3_2_6*%
X218500000Y-156500000D03*
%TO.P,J3,7,4_1_7*%
X223500000Y-148300001D03*
%TO.P,J3,8,4_2_8*%
X223500000Y-156500000D03*
%TD*%
D10*
%TO.C,Q7*%
%TO.CFtp,TO-263-7_TabPin8*%
%TO.CVal,BTN8982TA*%
%TO.CLbN,Package_TO_SOT_SMD*%
%TO.CMnt,SMD*%
%TO.CRot,0*%
X208528563Y-110390000D03*
D11*
X214973563Y-104745000D02*
X214973563Y-116035000D01*
X198333563Y-116035000D01*
X198333563Y-104745000D01*
X214973563Y-104745000D01*
D12*
%TO.P,Q7,1*%
X200878563Y-106580000D03*
D13*
%TO.P,Q7,2,IN_2*%
X200878563Y-107850000D03*
%TO.P,Q7,3,INH_3*%
X200878563Y-109120000D03*
%TO.P,Q7,4*%
X200878563Y-110390000D03*
%TO.P,Q7,5,SR_5*%
X200878563Y-111660000D03*
%TO.P,Q7,6,IS_6*%
X200878563Y-112930000D03*
%TO.P,Q7,7*%
X200878563Y-114200000D03*
%TO.P,Q7,8*%
X210028563Y-110390000D03*
%TD*%
D10*
%TO.C,U3*%
%TO.CFtp,SOT-223-3_TabPin2*%
%TO.CVal,LD1117S33TR_SOT223*%
%TO.CLbN,Package_TO_SOT_SMD*%
%TO.CMnt,SMD*%
%TO.CRot,0*%
X147570000Y-80825000D03*
D11*
X151965000Y-77230000D02*
X151965000Y-84420000D01*
X143175000Y-84420000D01*
X143175000Y-77230000D01*
X151965000Y-77230000D01*
D12*
%TO.P,U3,1,GND_1*%
X144420000Y-78525000D03*
D13*
%TO.P,U3,2,VO_2*%
X144420000Y-80825000D03*
X150720000Y-80825000D03*
%TO.P,U3,3,VI_3*%
X144420000Y-83125000D03*
%TD*%
D10*
%TO.C,R39*%
%TO.CFtp,R_0805_2012Metric*%
%TO.CVal,6k*%
%TO.CLbN,Resistor_SMD*%
%TO.CMnt,SMD*%
%TO.CRot,0*%
X85590000Y-116460000D03*
D11*
X87265000Y-115515000D02*
X87265000Y-117405000D01*
X83915000Y-117405000D01*
X83915000Y-115515000D01*
X87265000Y-115515000D01*
D12*
%TO.P,R39,1*%
X84677500Y-116460000D03*
D13*
%TO.P,R39,2*%
X86502500Y-116460000D03*
%TD*%
D10*
%TO.C,D2*%
%TO.CFtp,D_SOD-123*%
%TO.CVal,3v*%
%TO.CLbN,Diode_SMD*%
%TO.CMnt,SMD*%
%TO.CRot,0*%
X266412500Y-134952052D03*
D11*
X268757500Y-133807052D02*
X268757500Y-136097052D01*
X264067500Y-136097052D01*
X264067500Y-133807052D01*
X268757500Y-133807052D01*
D12*
%TO.P,D2,1,K_1*%
X264762500Y-134952052D03*
D13*
%TO.P,D2,2,A_2*%
X268062500Y-134952052D03*
%TD*%
D10*
%TO.C,R23*%
%TO.CFtp,R_0805_2012Metric*%
%TO.CVal,6k*%
%TO.CLbN,Resistor_SMD*%
%TO.CMnt,SMD*%
%TO.CRot,90*%
X251912500Y-112400000D03*
D11*
X252857500Y-110725000D02*
X252857500Y-114075000D01*
X250967500Y-114075000D01*
X250967500Y-110725000D01*
X252857500Y-110725000D01*
D12*
%TO.P,R23,1*%
X251912500Y-113312500D03*
D13*
%TO.P,R23,2*%
X251912500Y-111487500D03*
%TD*%
D10*
%TO.C,R20*%
%TO.CFtp,R_0805_2012Metric*%
%TO.CVal,10k*%
%TO.CLbN,Resistor_SMD*%
%TO.CMnt,SMD*%
%TO.CRot,180*%
X165000000Y-126700000D03*
D11*
X166675000Y-125755000D02*
X166675000Y-127645000D01*
X163325000Y-127645000D01*
X163325000Y-125755000D01*
X166675000Y-125755000D01*
D12*
%TO.P,R20,1*%
X165912500Y-126700000D03*
D13*
%TO.P,R20,2*%
X164087500Y-126700000D03*
%TD*%
D10*
%TO.C,D15*%
%TO.CFtp,D_SMA*%
%TO.CVal,SMAJ28A*%
%TO.CLbN,Diode_SMD*%
%TO.CMnt,SMD*%
%TO.CRot,180*%
X203878563Y-102700000D03*
D11*
X207373563Y-100955000D02*
X207373563Y-104445000D01*
X200383563Y-104445000D01*
X200383563Y-100955000D01*
X207373563Y-100955000D01*
D12*
%TO.P,D15,1,A1_1*%
X205878563Y-102700000D03*
D13*
%TO.P,D15,2,A2_2*%
X201878563Y-102700000D03*
%TD*%
D10*
%TO.C,R13*%
%TO.CFtp,R_0805_2012Metric*%
%TO.CVal,500*%
%TO.CLbN,Resistor_SMD*%
%TO.CMnt,SMD*%
%TO.CRot,-90*%
X264825000Y-125452052D03*
D11*
X265770000Y-123777052D02*
X265770000Y-127127052D01*
X263880000Y-127127052D01*
X263880000Y-123777052D01*
X265770000Y-123777052D01*
D12*
%TO.P,R13,1*%
X264825000Y-124539552D03*
D13*
%TO.P,R13,2*%
X264825000Y-126364552D03*
%TD*%
D10*
%TO.C,D7*%
%TO.CFtp,D_SOD-123*%
%TO.CVal,3v*%
%TO.CLbN,Diode_SMD*%
%TO.CMnt,SMD*%
%TO.CRot,0*%
X95125000Y-111160000D03*
D11*
X97470000Y-110015000D02*
X97470000Y-112305000D01*
X92780000Y-112305000D01*
X92780000Y-110015000D01*
X97470000Y-110015000D01*
D12*
%TO.P,D7,1,K_1*%
X93475000Y-111160000D03*
D13*
%TO.P,D7,2,A_2*%
X96775000Y-111160000D03*
%TD*%
D10*
%TO.C,D4*%
%TO.CFtp,D_SOD-123*%
%TO.CVal,3v*%
%TO.CLbN,Diode_SMD*%
%TO.CMnt,SMD*%
%TO.CRot,0*%
X255412500Y-112400000D03*
D11*
X257757500Y-111255000D02*
X257757500Y-113545000D01*
X253067500Y-113545000D01*
X253067500Y-111255000D01*
X257757500Y-111255000D01*
D12*
%TO.P,D4,1,K_1*%
X253762500Y-112400000D03*
D13*
%TO.P,D4,2,A_2*%
X257062500Y-112400000D03*
%TD*%
D10*
%TO.C,Q10*%
%TO.CFtp,TO-263-7_TabPin8*%
%TO.CVal,BTN8982TA*%
%TO.CLbN,Package_TO_SOT_SMD*%
%TO.CMnt,SMD*%
%TO.CRot,180*%
X223675000Y-110710000D03*
D11*
X233870000Y-105065000D02*
X233870000Y-116355000D01*
X217230000Y-116355000D01*
X217230000Y-105065000D01*
X233870000Y-105065000D01*
D12*
%TO.P,Q10,1*%
X231325000Y-114520000D03*
D13*
%TO.P,Q10,2,IN_2*%
X231325000Y-113250000D03*
%TO.P,Q10,3,INH_3*%
X231325000Y-111980000D03*
%TO.P,Q10,4*%
X231325000Y-110710000D03*
%TO.P,Q10,5,SR_5*%
X231325000Y-109440000D03*
%TO.P,Q10,6,IS_6*%
X231325000Y-108170000D03*
%TO.P,Q10,7*%
X231325000Y-106900000D03*
%TO.P,Q10,8*%
X222175000Y-110710000D03*
%TD*%
D10*
%TO.C,C5*%
%TO.CFtp,C_0603_1608Metric*%
%TO.CVal,100nF*%
%TO.CLbN,Capacitor_SMD*%
%TO.CMnt,SMD*%
%TO.CRot,0*%
X189000000Y-55000000D03*
D11*
X190475000Y-54275000D02*
X190475000Y-55725000D01*
X187525000Y-55725000D01*
X187525000Y-54275000D01*
X190475000Y-54275000D01*
D12*
%TO.P,C5,1*%
X188225000Y-55000000D03*
D13*
%TO.P,C5,2*%
X189775000Y-55000000D03*
%TD*%
D10*
%TO.C,R12*%
%TO.CFtp,R_0805_2012Metric*%
%TO.CVal,10k*%
%TO.CLbN,Resistor_SMD*%
%TO.CMnt,SMD*%
%TO.CRot,0*%
X263412500Y-140952052D03*
D11*
X265087500Y-140007052D02*
X265087500Y-141897052D01*
X261737500Y-141897052D01*
X261737500Y-140007052D01*
X265087500Y-140007052D01*
D12*
%TO.P,R12,1*%
X262500000Y-140952052D03*
D13*
%TO.P,R12,2*%
X264325000Y-140952052D03*
%TD*%
D10*
%TO.C,C24*%
%TO.CFtp,C_0603_1608Metric*%
%TO.CVal,100nF*%
%TO.CLbN,Capacitor_SMD*%
%TO.CMnt,SMD*%
%TO.CRot,90*%
X184000000Y-132200000D03*
D11*
X184725000Y-130725000D02*
X184725000Y-133675000D01*
X183275000Y-133675000D01*
X183275000Y-130725000D01*
X184725000Y-130725000D01*
D12*
%TO.P,C24,1*%
X184000000Y-132975000D03*
D13*
%TO.P,C24,2*%
X184000000Y-131425000D03*
%TD*%
D10*
%TO.C,TP2*%
%TO.CFtp,TestPoint_Loop_D2.50mm_Drill1.85mm*%
%TO.CVal,VCC*%
%TO.CLbN,TestPoint*%
%TO.CMnt,TH*%
%TO.CRot,0*%
X135520000Y-124570000D03*
D11*
X135885499Y-122403159D02*
X136171051Y-122471209D01*
X136444982Y-122576712D01*
X136702412Y-122717787D01*
X136938734Y-122891910D01*
X137149743Y-123095982D01*
X137331670Y-123326360D01*
X137481267Y-123578928D01*
X137595864Y-123849182D01*
X137673417Y-124132298D01*
X137712549Y-124423267D01*
X137714999Y-124570000D01*
X137712549Y-124716732D01*
X137673417Y-125007701D01*
X137595864Y-125290817D01*
X137481267Y-125561071D01*
X137331670Y-125813639D01*
X137149743Y-126044017D01*
X136938734Y-126248089D01*
X136702412Y-126422212D01*
X136444982Y-126563287D01*
X136171051Y-126668790D01*
X135885499Y-126736840D01*
X135593425Y-126766223D01*
X135300043Y-126756415D01*
X135010591Y-126707590D01*
X134730214Y-126620616D01*
X134463942Y-126497053D01*
X134216518Y-126339103D01*
X133992349Y-126149580D01*
X133795442Y-125931871D01*
X133629311Y-125689859D01*
X133496915Y-125427856D01*
X133400627Y-125150560D01*
X133342155Y-124862890D01*
X133322549Y-124570000D01*
X133342155Y-124277109D01*
X133400627Y-123989439D01*
X133496915Y-123712143D01*
X133629311Y-123450140D01*
X133795442Y-123208128D01*
X133992349Y-122990419D01*
X134216518Y-122800896D01*
X134463942Y-122642946D01*
X134730214Y-122519383D01*
X135010591Y-122432409D01*
X135300043Y-122383584D01*
X135593425Y-122373776D01*
X135885499Y-122403159D01*
D12*
%TO.P,TP2,1,1_1*%
X135520000Y-124570000D03*
%TD*%
D10*
%TO.C,R27*%
%TO.CFtp,R_0805_2012Metric*%
%TO.CVal,3k*%
%TO.CLbN,Resistor_SMD*%
%TO.CMnt,SMD*%
%TO.CRot,180*%
X165912500Y-133200000D03*
D11*
X167587500Y-132255000D02*
X167587500Y-134145000D01*
X164237500Y-134145000D01*
X164237500Y-132255000D01*
X167587500Y-132255000D01*
D12*
%TO.P,R27,1*%
X166825000Y-133200000D03*
D13*
%TO.P,R27,2*%
X165000000Y-133200000D03*
%TD*%
D10*
%TO.C,R60*%
%TO.CFtp,R_0805_2012Metric*%
%TO.CVal,5.1k*%
%TO.CLbN,Resistor_SMD*%
%TO.CMnt,SMD*%
%TO.CRot,0*%
X252912500Y-105900000D03*
D11*
X254587500Y-104955000D02*
X254587500Y-106845000D01*
X251237500Y-106845000D01*
X251237500Y-104955000D01*
X254587500Y-104955000D01*
D12*
%TO.P,R60,1*%
X252000000Y-105900000D03*
D13*
%TO.P,R60,2*%
X253825000Y-105900000D03*
%TD*%
D10*
%TO.C,R54*%
%TO.CFtp,R_0805_2012Metric*%
%TO.CVal,400*%
%TO.CLbN,Resistor_SMD*%
%TO.CMnt,SMD*%
%TO.CRot,0*%
X141980000Y-88570000D03*
D11*
X143655000Y-87625000D02*
X143655000Y-89515000D01*
X140305000Y-89515000D01*
X140305000Y-87625000D01*
X143655000Y-87625000D01*
D12*
%TO.P,R54,1*%
X141067500Y-88570000D03*
D13*
%TO.P,R54,2*%
X142892500Y-88570000D03*
%TD*%
D10*
%TO.C,D1*%
%TO.CFtp,D_SOD-123*%
%TO.CVal,3v*%
%TO.CLbN,Diode_SMD*%
%TO.CMnt,SMD*%
%TO.CRot,180*%
X176791063Y-108700000D03*
D11*
X179136063Y-107555000D02*
X179136063Y-109845000D01*
X174446063Y-109845000D01*
X174446063Y-107555000D01*
X179136063Y-107555000D01*
D12*
%TO.P,D1,1,K_1*%
X178441063Y-108700000D03*
D13*
%TO.P,D1,2,A_2*%
X175141063Y-108700000D03*
%TD*%
D10*
%TO.C,TP4*%
%TO.CFtp,TestPoint_Loop_D2.50mm_Drill1.85mm*%
%TO.CVal,5V*%
%TO.CLbN,TestPoint*%
%TO.CMnt,TH*%
%TO.CRot,0*%
X135520000Y-135470000D03*
D11*
X135885499Y-133303159D02*
X136171051Y-133371209D01*
X136444982Y-133476712D01*
X136702412Y-133617787D01*
X136938734Y-133791910D01*
X137149743Y-133995982D01*
X137331670Y-134226360D01*
X137481267Y-134478928D01*
X137595864Y-134749182D01*
X137673417Y-135032298D01*
X137712549Y-135323267D01*
X137714999Y-135470000D01*
X137712549Y-135616732D01*
X137673417Y-135907701D01*
X137595864Y-136190817D01*
X137481267Y-136461071D01*
X137331670Y-136713639D01*
X137149743Y-136944017D01*
X136938734Y-137148089D01*
X136702412Y-137322212D01*
X136444982Y-137463287D01*
X136171051Y-137568790D01*
X135885499Y-137636840D01*
X135593425Y-137666223D01*
X135300043Y-137656415D01*
X135010591Y-137607590D01*
X134730214Y-137520616D01*
X134463942Y-137397053D01*
X134216518Y-137239103D01*
X133992349Y-137049580D01*
X133795442Y-136831871D01*
X133629311Y-136589859D01*
X133496915Y-136327856D01*
X133400627Y-136050560D01*
X133342155Y-135762890D01*
X133322549Y-135470000D01*
X133342155Y-135177109D01*
X133400627Y-134889439D01*
X133496915Y-134612143D01*
X133629311Y-134350140D01*
X133795442Y-134108128D01*
X133992349Y-133890419D01*
X134216518Y-133700896D01*
X134463942Y-133542946D01*
X134730214Y-133419383D01*
X135010591Y-133332409D01*
X135300043Y-133283584D01*
X135593425Y-133273776D01*
X135885499Y-133303159D01*
D12*
%TO.P,TP4,1,1_1*%
X135520000Y-135470000D03*
%TD*%
D10*
%TO.C,RST1*%
%TO.CFtp,SW_SPST_PTS647_Sx50*%
%TO.CVal,SW_Push*%
%TO.CLbN,Button_Switch_SMD*%
%TO.CMnt,SMD*%
%TO.CRot,0*%
X148360000Y-96770000D03*
D11*
X152005000Y-94075000D02*
X152005000Y-99465000D01*
X144715000Y-99465000D01*
X144715000Y-94075000D01*
X152005000Y-94075000D01*
D12*
%TO.P,RST1,1,1_1*%
X145735000Y-95170000D03*
X150985000Y-95170000D03*
D13*
%TO.P,RST1,2,2_2*%
X145735000Y-98370000D03*
X150985000Y-98370000D03*
%TD*%
D10*
%TO.C,C12*%
%TO.CFtp,C_0603_1608Metric*%
%TO.CVal,33nF*%
%TO.CLbN,Capacitor_SMD*%
%TO.CMnt,SMD*%
%TO.CRot,180*%
X184000000Y-53150000D03*
D11*
X185475000Y-52425000D02*
X185475000Y-53875000D01*
X182525000Y-53875000D01*
X182525000Y-52425000D01*
X185475000Y-52425000D01*
D12*
%TO.P,C12,1*%
X184775000Y-53150000D03*
D13*
%TO.P,C12,2*%
X183225000Y-53150000D03*
%TD*%
M02*
